<svg width="54" height="54" viewBox="0 0 54 54" fill="none" xmlns="http://www.w3.org/2000/svg">
<path d="M26.9996 0C16.5155 0 7.98633 8.6632 7.98633 19.3112V34.6893C7.98633 45.3373 16.5155 54 26.9996 54C37.4831 54 46.0129 45.3636 46.0129 34.7484V19.3112C46.0129 8.6632 37.4831 0 26.9996 0ZM42.4366 34.7484C42.4366 43.392 35.512 50.4239 26.9996 50.4239C18.4877 50.4239 11.5626 43.3652 11.5626 34.6888V19.3112C11.5626 10.6348 18.4877 3.57613 26.9996 3.57613C35.5121 3.57613 42.4366 10.6348 42.4366 19.3112V34.7484Z" fill="#009AFF"/>
<path d="M27 14.7815C26.0124 14.7815 25.2119 15.582 25.2119 16.5696V22.8279C25.2119 23.8155 26.0124 24.616 27 24.616C27.9876 24.616 28.7881 23.8155 28.7881 22.8279V16.5696C28.7881 15.582 27.9876 14.7815 27 14.7815Z" fill="#009AFF"/>
</svg>
