<svg width="48" height="48" viewBox="0 0 48 48" fill="none" xmlns="http://www.w3.org/2000/svg">
<g id="fi_2202112">
<g id="Group">
<path id="Vector" d="M41.5525 39.8438C44.9308 35.8446 46.9685 30.6763 46.9685 25.0313C46.9685 12.3461 36.685 2.06262 23.9998 2.06262C11.3146 2.06262 1.03125 12.3461 1.03125 25.0313C1.03125 30.7023 3.08766 35.8922 6.49387 39.8989L41.5525 39.8438Z" fill="#FF4155"/>
<path id="Vector_2" d="M31.9852 35.6177C28.9953 40.6773 24.1746 40.7216 24.1746 40.7216C24.1746 40.7216 19.358 40.6773 16.3681 35.6236C16.2995 35.7066 16.2289 35.7874 16.1537 35.8626C15.7525 35.9552 15.3573 36.0573 14.9663 36.1665C15.1814 36.2601 15.3685 36.4194 15.4935 36.6329C17.332 39.773 20.5375 43.5236 24.1849 43.5236C27.8324 43.5236 31.0379 39.773 32.8764 36.6329C33.0005 36.421 33.1859 36.2625 33.399 36.1685C33.0056 36.0584 32.6081 35.9557 32.2045 35.8626C32.1274 35.7857 32.0552 35.7029 31.9852 35.6177Z" fill="#FCAD6D"/>
<path id="Vector_3" d="M21.4561 40.093C19.8673 39.4587 17.8832 38.1845 16.3681 35.6237C16.2995 35.7067 16.2289 35.7875 16.1537 35.8627C15.7525 35.9553 15.3573 36.0573 14.9663 36.1667C15.1814 36.2603 15.3685 36.4196 15.4935 36.6331C16.5587 38.4526 18.0831 40.4769 19.8865 41.8579C19.9801 41.8221 20.06 41.7875 20.1231 41.7537C20.8221 41.3789 21.2413 40.6107 21.4561 40.093Z" fill="#FD995B"/>
<path id="Vector_4" d="M36.4512 9.59651C36.4512 7.03423 34.975 5.97251 33.9986 5.55055C33.5065 5.33783 33.1222 4.94989 32.9267 4.46558C32.4995 3.40686 31.2915 1.57236 27.9135 0.451295C22.9471 -1.19702 18.5325 2.15267 16.1596 2.79073C14.5991 3.21026 13.3728 2.28476 12.7159 1.60179C12.4383 1.31314 11.9448 1.40051 11.7872 1.76351C11.2743 2.94495 10.5271 5.26845 11.2108 7.68476C11.2527 7.8328 11.1027 7.9648 10.9526 7.91333C10.7542 7.84536 10.576 7.78198 10.4328 7.73005C10.2862 7.67698 10.14 7.80945 10.1866 7.95345C10.7644 9.73958 11.3246 10.7585 11.8273 11.308C12.0497 11.5512 12.1984 11.8496 12.2369 12.1716C12.3116 12.7989 12.437 13.4675 12.6437 14.087C12.9489 15.0015 13.1402 15.9491 13.1954 16.9116C13.196 16.9229 13.1965 16.9295 13.1969 16.9308H35.4085C35.4095 16.9262 35.4107 16.9101 35.4121 16.8845C35.4661 15.9407 35.6502 15.0084 35.9529 14.1128C36.6275 12.1175 36.4512 9.59651 36.4512 9.59651Z" fill="#41416B"/>
<path id="Vector_5" d="M19.2363 10.7467C19.2363 10.7467 21.2999 8.275 19.8622 5.48556C18.4246 2.69612 21.9007 0.493652 21.9007 0.493652C19.5109 1.19321 17.5063 2.42865 16.1596 2.79071C14.5992 3.21034 13.3728 2.28475 12.7159 1.60178C12.4383 1.31312 11.9448 1.4005 11.7872 1.7635C11.2743 2.94493 10.5271 5.26843 11.2108 7.68475C11.2527 7.83278 11.1027 7.96478 10.9526 7.91331C10.7542 7.84534 10.576 7.78196 10.4328 7.73003C10.2862 7.67696 10.14 7.80943 10.1866 7.95343C10.7644 9.73956 11.3246 10.7585 11.8273 11.308C12.0497 11.5512 12.1984 11.8496 12.2369 12.1716C12.3116 12.7989 12.437 13.4674 12.6437 14.0869C12.9489 15.0015 13.1402 15.9491 13.1954 16.9116C13.196 16.9229 13.1965 16.9294 13.1969 16.9307H17.8809L19.2363 10.7467Z" fill="#35355E"/>
<path id="Vector_6" d="M36.1181 16.8318C35.62 16.3753 34.6278 16.6067 34.1988 16.8863C34.2928 17.4715 34.298 18.0702 34.217 18.6615L33.7107 22.3486C33.7107 22.6458 33.7013 22.9374 33.6841 23.2239C34.9186 23.5963 35.5317 22.488 35.635 21.7275C35.6795 21.4001 35.7522 21.0774 35.853 20.7625C36.1815 19.737 37.3661 17.9754 36.1181 16.8318Z" fill="#FCAD6D"/>
<g id="Group_2">
<path id="Vector_7" d="M35.1806 20.3203C34.7225 20.3203 34.3177 20.0958 34.0672 19.7518L33.7107 22.3485C33.7107 22.6457 33.7013 22.9374 33.6841 23.2239C34.9186 23.5962 35.5317 22.488 35.635 21.7274C35.6795 21.4 35.7522 21.0774 35.8531 20.7625C35.938 20.4971 36.0803 20.1822 36.223 19.8418C35.9704 20.1344 35.5975 20.3203 35.1806 20.3203Z" fill="#FD995B"/>
</g>
<path id="Vector_8" d="M12.2318 16.8318C12.7299 16.3753 13.7222 16.6067 14.1512 16.8863C14.0571 17.4715 14.0518 18.0702 14.1331 18.6615L14.6393 22.3486C14.6393 22.6458 14.6487 22.9374 14.6659 23.2239C13.4315 23.5963 12.8183 22.488 12.715 21.7275C12.6706 21.4001 12.5978 21.0774 12.497 20.7625C12.1684 19.737 10.9838 17.9754 12.2318 16.8318Z" fill="#FCAD6D"/>
<path id="Vector_9" d="M33.562 14.9713C33.2555 14.4904 33.1207 13.9215 33.1617 13.3542C33.1866 13.0107 33.2031 12.5978 33.1942 12.1514C33.1906 12.0927 33.1887 12.0291 33.1887 11.9597C33.184 11.8297 33.1768 11.6973 33.1671 11.5634C33.0469 10.3686 32.4047 9.50805 31.8933 9.00217C31.5517 8.6643 31.0252 8.59792 30.6045 8.82986C24.2822 12.316 19.0426 11.0281 16.2216 9.75836C15.8797 9.60452 15.4854 9.80392 15.3956 10.1679C15.1142 11.3084 15.1285 12.5418 15.1893 13.3682C15.2306 13.9311 15.0921 14.4941 14.7878 14.9714C14.6125 15.2465 14.4723 15.5377 14.3601 15.8259C13.9961 16.7606 13.8901 17.7745 14.0264 18.7673L14.5327 22.4552C14.5327 22.4619 14.533 22.4682 14.533 22.4749C15.0536 23.9933 16.107 26.17 17.9891 26.7878L18.0129 26.7946C19.1456 27.1201 20.0213 28.0135 20.3927 29.153C20.9171 30.7624 22.4055 31.1903 24.1747 31.1903C25.9447 31.1903 27.432 30.7621 27.9564 29.1535C28.328 28.014 29.2035 27.1202 30.3364 26.7946L30.3602 26.7878C32.2425 26.1699 33.2962 23.9927 33.8168 22.4743C33.8168 22.4679 33.8171 22.4616 33.8171 22.4552L34.3234 18.7681C34.4584 17.7851 34.356 16.7812 34.0005 15.8537C33.8867 15.5562 33.7431 15.2552 33.562 14.9713Z" fill="#F9BA8F"/>
<g id="Group_3">
<path id="Vector_10" d="M13.1695 20.3203C13.6276 20.3203 14.0323 20.0958 14.2828 19.7518L14.6394 22.3485C14.6394 22.6457 14.6487 22.9374 14.6659 23.2239C13.4314 23.5962 12.8183 22.488 12.715 21.7274C12.6705 21.4 12.5978 21.0774 12.4969 20.7625C12.412 20.4971 12.2696 20.1822 12.127 19.8418C12.3797 20.1344 12.7525 20.3203 13.1695 20.3203Z" fill="#FD995B"/>
</g>
<path id="Vector_11" d="M18.2439 18.7672C18.0831 17.2904 18.3711 15.9143 18.8476 14.9714C19.0888 14.4942 19.1987 13.9311 19.1659 13.3682C19.1258 12.6804 19.1114 11.7104 19.2361 10.7468C18.0533 10.493 17.0396 10.1263 16.2263 9.76063C15.8823 9.60595 15.4859 9.80151 15.3955 10.1677C15.114 11.3084 15.1284 12.5418 15.1891 13.3682C15.2304 13.9311 15.0919 14.4941 14.7876 14.9714C14.1786 15.927 13.8255 17.3054 14.0262 18.7672L14.5326 22.4551C14.5326 22.4618 14.5329 22.4683 14.533 22.4748C15.0536 23.9932 16.107 26.1698 17.9891 26.7877L18.0129 26.7945C18.5521 26.9495 19.032 27.2342 19.428 27.6118C18.9496 26.1233 18.6456 24.4045 18.6456 22.4551L18.2439 18.7672Z" fill="#FCAD6D"/>
<path id="Vector_12" d="M27.6292 18.6524C27.6292 18.4789 27.6616 18.3138 27.7197 18.1637C27.4941 18.2744 27.312 18.3998 27.1823 18.5056C26.8797 18.7524 26.3536 19.0654 26.0655 19.2309C26.0111 19.2622 26.0333 19.3453 26.0961 19.3453H26.1245C26.3918 19.3453 26.6577 19.387 26.9115 19.4707C27.3519 19.6157 27.7732 19.6878 28.1628 19.7116C27.8427 19.492 27.6292 19.1 27.6292 18.6524Z" fill="#FFF5EE"/>
<path id="Vector_13" d="M31.2123 18.9238C30.6861 18.4303 30.1805 18.1455 29.7127 18.0013C29.8179 18.1908 29.8788 18.4137 29.8788 18.6523C29.8788 19.0424 29.7165 19.3903 29.4629 19.6186C29.8458 19.5395 30.1446 19.4294 30.3297 19.3452C30.7093 19.1723 30.9965 19.102 31.1672 19.0734C31.2382 19.0616 31.2648 18.9732 31.2123 18.9238Z" fill="#FFF5EE"/>
<path id="Vector_14" d="M27.6493 18.1996C27.5851 18.3461 27.5493 18.5078 27.5493 18.6781C27.5493 19.1185 27.7878 19.503 28.1425 19.7103C28.6541 19.7436 29.1117 19.6933 29.4866 19.6139C29.7621 19.395 29.9389 19.0573 29.9389 18.6781C29.9389 18.4296 29.8631 18.1989 29.7332 18.0079C28.8764 17.7367 28.1458 17.939 27.6493 18.1996Z" fill="#41416B"/>
<path id="Vector_15" d="M29.1899 18.7531C29.1899 19.0061 28.9848 19.2111 28.7319 19.2111C28.479 19.2111 28.2739 19.0061 28.2739 18.7531C28.2739 18.5002 28.479 18.2952 28.7319 18.2952C28.9848 18.2952 29.1899 18.5002 29.1899 18.7531Z" fill="#35355E"/>
<path id="Vector_16" d="M32.2245 17.2278C32.1561 16.7779 31.8835 15.7322 30.8197 15.4904C29.7455 15.2463 27.4804 15.7064 26.5633 15.9138C26.319 15.969 26.1254 16.1548 26.0599 16.3966L25.871 17.0933C25.855 17.1525 25.9094 17.2065 25.9684 17.19C26.6637 16.9949 29.8651 16.1292 30.8403 16.4421C31.584 16.6806 31.966 17.0524 32.1348 17.2669C32.1669 17.3076 32.2324 17.2791 32.2245 17.2278Z" fill="#41416B"/>
<path id="Vector_17" d="M20.9648 18.6524C20.9648 18.4789 20.9323 18.3138 20.8743 18.1637C21.0999 18.2744 21.282 18.3998 21.4118 18.5056C21.7144 18.7524 22.2404 19.0654 22.5284 19.2309C22.5829 19.2622 22.5607 19.3453 22.4979 19.3453H22.4695C22.2022 19.3453 21.9363 19.387 21.6824 19.4707C21.2421 19.6157 20.8208 19.6878 20.4312 19.7116C20.7513 19.492 20.9648 19.1 20.9648 18.6524Z" fill="#FFF5EE"/>
<path id="Vector_18" d="M17.3816 18.9238C17.9077 18.4303 18.4134 18.1455 18.8811 18.0013C18.7759 18.1908 18.7151 18.4137 18.7151 18.6523C18.7151 19.0424 18.8774 19.3903 19.131 19.6186C18.7481 19.5395 18.4492 19.4294 18.2641 19.3452C17.8845 19.1723 17.5974 19.102 17.4267 19.0734C17.3556 19.0616 17.3291 18.9732 17.3816 18.9238Z" fill="#FFF5EE"/>
<path id="Vector_19" d="M20.9449 18.1996C21.0091 18.3461 21.0449 18.5078 21.0449 18.6781C21.0449 19.1185 20.8064 19.503 20.4517 19.7103C19.9401 19.7436 19.4825 19.6933 19.1076 19.6139C18.8321 19.395 18.6553 19.0573 18.6553 18.6781C18.6553 18.4296 18.7311 18.1989 18.861 18.0079C19.7177 17.7367 20.4484 17.939 20.9449 18.1996Z" fill="#41416B"/>
<path id="Vector_20" d="M19.4043 18.7531C19.4043 19.0061 19.6093 19.2111 19.8623 19.2111C20.1152 19.2111 20.3202 19.0061 20.3202 18.7531C20.3202 18.5002 20.1152 18.2952 19.8623 18.2952C19.6093 18.2952 19.4043 18.5002 19.4043 18.7531Z" fill="#35355E"/>
<path id="Vector_21" d="M16.3693 17.2278C16.4377 16.7779 16.7104 15.7322 17.7741 15.4904C18.8483 15.2463 21.1134 15.7064 22.0305 15.9138C22.2748 15.969 22.4684 16.1548 22.5339 16.3966L22.7228 17.0933C22.7389 17.1525 22.6844 17.2065 22.6253 17.19C21.9301 16.9949 18.7287 16.1292 17.7534 16.4421C17.0097 16.6806 16.6278 17.0524 16.4589 17.2669C16.427 17.3076 16.3615 17.2791 16.3693 17.2278Z" fill="#41416B"/>
<path id="Vector_22" d="M26.9806 27.9169L25.958 28.3201C25.843 28.3655 25.716 28.3706 25.5976 28.335L24.4191 27.9796L23.2407 28.335C23.1223 28.3706 22.9952 28.3655 22.8802 28.3201L21.8576 27.9169C21.5751 27.8055 21.4364 27.4861 21.5477 27.2036C21.6588 26.9219 21.9776 26.7821 22.261 26.8938L23.106 27.227L24.2552 26.8804C24.3666 26.8456 24.4827 26.8481 24.5831 26.8805L25.7322 27.227L26.5771 26.8938C26.8591 26.7828 27.1786 26.9204 27.2904 27.2036C27.402 27.4862 27.2632 27.8055 26.9806 27.9169Z" fill="#FCAD6D"/>
<g id="Group_4">
<path id="Vector_23" d="M28.3495 15.5735C27.637 15.6812 26.9685 15.8221 26.5633 15.9137C26.319 15.9689 26.1254 16.1547 26.0599 16.3965L25.871 17.0933C25.855 17.1524 25.9094 17.2064 25.9685 17.1899C26.354 17.0817 27.5098 16.7677 28.6296 16.5624C28.169 16.4734 28.0003 15.895 28.3495 15.5735Z" fill="#35355E"/>
</g>
<g id="Group_5">
<path id="Vector_24" d="M19.5937 15.4874C18.9022 15.4103 18.2309 15.3867 17.7746 15.4904C16.7107 15.7322 16.4382 16.7778 16.3698 17.2278C16.362 17.279 16.4274 17.3076 16.4595 17.2669C16.6283 17.0524 17.0103 16.6806 17.754 16.4421C18.1252 16.323 18.8189 16.3749 19.5741 16.4952C19.1812 16.2672 19.1938 15.6987 19.5937 15.4874Z" fill="#35355E"/>
</g>
<path id="Vector_25" d="M34.0268 20.9299C34.0268 20.9299 33.1416 25.7055 30.2278 26.662L30.2045 26.6687C29.0959 26.9872 28.2392 27.8618 27.8757 28.977C27.3625 30.5511 25.907 30.97 24.175 30.97C22.4437 30.97 20.9874 30.5513 20.4741 28.9764C20.1107 27.8614 19.2538 26.9871 18.1454 26.6687L18.1222 26.662C15.2083 25.7055 14.3236 20.9299 14.3236 20.9299C12.0838 40.8999 24.175 41.0101 24.175 41.0101C24.175 41.0101 36.2667 40.8999 34.0268 20.9299Z" fill="#41416B"/>
<path id="Vector_26" d="M24.7718 29.238H24.066C23.7622 29.238 23.5161 29.4842 23.5161 29.7879C23.5161 30.0916 23.7623 30.3377 24.066 30.3377H24.7718C25.0756 30.3377 25.3216 30.0915 25.3216 29.7879C25.3216 29.4842 25.0755 29.238 24.7718 29.238Z" fill="#FCAD6D"/>
<path id="Vector_27" d="M18.1218 26.8534L18.1451 26.8601C18.898 27.0764 19.5343 27.5497 19.9792 28.1802L20.4932 27.8387C20.7884 27.6426 21.1364 27.536 21.4907 27.5474C22.7222 27.5868 23.801 27.2279 24.2262 27.0636C24.3503 27.0156 24.4874 27.0156 24.6115 27.0636C25.0367 27.2279 26.1155 27.5868 27.347 27.5474C27.7013 27.536 28.0493 27.6426 28.3445 27.8387L28.5353 27.9655C28.9668 27.4429 29.5398 27.0511 30.2043 26.8602L30.2275 26.8535C30.5017 26.7635 30.758 26.6396 30.9973 26.489C30.1603 25.0571 28.2423 23.0452 24.4188 24.4319C20.4083 22.9773 18.494 25.2622 17.7251 26.6946C17.8529 26.7553 17.9852 26.8085 18.1218 26.8534Z" fill="#41416B"/>
<path id="Vector_28" d="M22.5744 24.1316L22.9936 24.0433C23.7725 24.8127 25.0669 24.8114 25.8446 24.0433L26.2638 24.1316C26.5651 24.1947 26.8617 24.002 26.9252 23.7001C26.9888 23.3984 26.7957 23.1023 26.4939 23.0387L25.7417 22.8804C25.4968 22.8288 25.2578 22.9272 25.1422 23.1488C24.838 23.6192 24.0008 23.6199 23.6961 23.1488C23.5805 22.9272 23.3414 22.829 23.0966 22.8804L22.3443 23.0387C22.0425 23.1023 21.8494 23.3984 21.913 23.7001C21.9764 24.0019 22.2727 24.1949 22.5744 24.1316Z" fill="#FCAD6D"/>
<path id="Vector_29" d="M24.0001 48C31.0845 48 37.4189 44.7918 41.6321 39.7499C41.062 39.616 40.6237 39.3225 39.8412 38.8813C37.9126 37.7938 35.9579 36.7822 33.8751 36.1218C33.3864 35.9669 32.8533 36.1727 32.5944 36.615C30.8143 39.6551 27.7107 43.2865 24.1794 43.2865C20.648 43.2865 17.5444 39.6552 15.7644 36.615C15.5053 36.1727 14.9723 35.9668 14.4836 36.1218C12.4008 36.7821 10.4461 37.7938 8.51757 38.8813C7.5991 39.3992 7.15491 39.7139 6.41504 39.8054C10.6283 44.8152 16.9418 48 24.0001 48Z" fill="#FFF5EE"/>
<path id="Vector_30" d="M15.7643 36.6151C15.5053 36.1728 14.9723 35.967 14.4836 36.1219C12.4008 36.7822 10.4461 37.7939 8.51757 38.8814C7.5991 39.3993 7.15491 39.714 6.41504 39.8055C8.26885 42.0097 10.5295 43.8602 13.081 45.242C15.1901 42.8386 19.24 42.2272 20.1233 41.7537L20.1235 41.7536C18.3314 40.4154 16.8165 38.4122 15.7643 36.6151Z" fill="#FCE6D6"/>
<g id="Group_6">
<path id="Vector_31" d="M21.268 24.02C19.3327 24.3106 18.2559 25.7055 17.7251 26.6943C17.853 26.7551 17.9852 26.8083 18.1218 26.8532L18.1451 26.8599C18.898 27.0763 19.5343 27.5495 19.9793 28.18L20.4933 27.8386C20.7885 27.6424 21.1365 27.5358 21.4908 27.5472C21.745 27.5553 21.9921 27.5459 22.229 27.5252C20.0653 26.2243 21.2675 24.0208 21.268 24.02Z" fill="#35355E"/>
<path id="Vector_32" d="M23.7363 35.4901C21.821 33.0978 24.4187 30.9701 24.4187 30.9701L24.4173 30.9669C24.337 30.9689 24.2561 30.9701 24.1745 30.9701C22.4432 30.9701 20.9868 30.5514 20.4736 28.9765C20.1102 27.8615 19.2534 26.9872 18.1449 26.6687L18.1217 26.662C15.2079 25.7055 14.3231 20.9299 14.3231 20.9299C12.0834 40.8999 24.1745 41.0101 24.1745 41.0101C24.1745 41.0101 26.3334 38.7338 23.7363 35.4901Z" fill="#35355E"/>
</g>
</g>
</g>
</svg>
