<svg width="33" height="45" viewBox="0 0 33 45" fill="none" xmlns="http://www.w3.org/2000/svg">
<path d="M16.2654 0.774414C7.42863 0.774414 0.265625 7.66191 0.265625 16.1588C0.265625 24.6557 7.42863 31.5432 16.2654 31.5432C25.1021 31.5432 32.2651 24.6557 32.2651 16.1588C32.2651 7.66191 25.1021 0.774414 16.2654 0.774414ZM23.3 14.9057L20.3766 17.6463L21.0672 21.515C21.1826 22.1588 20.479 22.6494 19.8794 22.3447L16.2654 20.5182L12.6514 22.3447C12.0501 22.6479 11.3481 22.1572 11.4635 21.515L12.1541 17.6463L9.23075 14.9057C8.74487 14.4494 9.013 13.6557 9.68412 13.5619L13.7239 12.9979L15.5309 9.47754C15.8315 8.8916 16.6992 8.8916 16.9999 9.47754L18.8069 12.9979L22.8466 13.5619C23.5177 13.6557 23.7859 14.451 23.3 14.9057Z" fill="#0062FF"/>
<path d="M16.265 33.8855C12.7843 33.8855 9.53916 32.9371 6.75879 31.3184V43.6965C6.75879 44.3527 7.52254 44.7434 8.09129 44.384L15.7938 39.5246C16.0863 39.3371 16.4438 39.3371 16.7363 39.5246L24.4388 44.384C25.0075 44.7434 25.7713 44.3527 25.7713 43.6965V31.3184C22.9909 32.9371 19.7458 33.8855 16.265 33.8855Z" fill="#0062FF"/>
</svg>
