<svg width="52" height="50" viewBox="0 0 52 50" fill="none" xmlns="http://www.w3.org/2000/svg">
<g clip-path="url(#clip0_74_4731)">
<path fill-rule="evenodd" clip-rule="evenodd" d="M41.9688 17.6839C41.9688 14.2029 39.1477 11.3818 35.6667 11.3818H17.3333C13.8523 11.3818 11.0312 14.2029 11.0312 17.6839V36.0173C11.0312 39.4983 13.8523 42.3193 17.3333 42.3193H35.6667C39.1477 42.3193 41.9688 39.4983 41.9688 36.0173V17.6839ZM31.0833 22.2673V31.4339C31.0833 32.3827 31.8533 33.1527 32.8021 33.1527C33.7508 33.1527 34.5208 32.3827 34.5208 31.4339V22.2673C34.5208 21.3185 33.7508 20.5485 32.8021 20.5485C31.8533 20.5485 31.0833 21.3185 31.0833 22.2673ZM28.7917 31.4339V24.5589C28.7917 22.3452 26.9973 20.5485 24.7812 20.5485H22.4896C20.2735 20.5485 18.4792 22.3452 18.4792 24.5589V31.4339C18.4792 32.3827 19.2492 33.1527 20.1979 33.1527C21.1467 33.1527 21.9167 32.3827 21.9167 31.4339V29.7152H25.3542V31.4339C25.3542 32.3827 26.1242 33.1527 27.0729 33.1527C28.0217 33.1527 28.7917 32.3827 28.7917 31.4339ZM21.9167 26.2777H25.3542V24.5589C25.3542 24.2427 25.0975 23.986 24.7812 23.986H22.4896C22.1733 23.986 21.9167 24.2427 21.9167 24.5589V26.2777Z" fill="#0062FF"/>
<path fill-rule="evenodd" clip-rule="evenodd" d="M40.25 28.5693H49.4167C50.3654 28.5693 51.1354 27.7993 51.1354 26.8506C51.1354 25.9018 50.3654 25.1318 49.4167 25.1318H40.25C39.3013 25.1318 38.5312 25.9018 38.5312 26.8506C38.5312 27.7993 39.3013 28.5693 40.25 28.5693Z" fill="#0062FF"/>
<path fill-rule="evenodd" clip-rule="evenodd" d="M28.2188 13.1007V3.93408C28.2188 2.98533 27.4488 2.21533 26.5 2.21533C25.5513 2.21533 24.7812 2.98533 24.7812 3.93408V13.1007C24.7812 14.0495 25.5513 14.8195 26.5 14.8195C27.4488 14.8195 28.2188 14.0495 28.2188 13.1007Z" fill="#0062FF"/>
<path fill-rule="evenodd" clip-rule="evenodd" d="M24.7812 40.6006V49.7673C24.7812 50.716 25.5513 51.486 26.5 51.486C27.4488 51.486 28.2188 50.716 28.2188 49.7673V40.6006C28.2188 39.6518 27.4488 38.8818 26.5 38.8818C25.5513 38.8818 24.7812 39.6518 24.7812 40.6006Z" fill="#0062FF"/>
<path fill-rule="evenodd" clip-rule="evenodd" d="M12.7497 25.1318H3.58301C2.63426 25.1318 1.86426 25.9018 1.86426 26.8506C1.86426 27.7993 2.63426 28.5693 3.58301 28.5693H12.7497C13.6984 28.5693 14.4684 27.7993 14.4684 26.8506C14.4684 25.9018 13.6984 25.1318 12.7497 25.1318Z" fill="#0062FF"/>
<path fill-rule="evenodd" clip-rule="evenodd" d="M40.25 21.6943H45.9792C46.9279 21.6943 47.6979 20.9243 47.6979 19.9756C47.6979 19.0268 46.9279 18.2568 45.9792 18.2568H40.25C39.3013 18.2568 38.5312 19.0268 38.5312 19.9756C38.5312 20.9243 39.3013 21.6943 40.25 21.6943Z" fill="#0062FF"/>
<path fill-rule="evenodd" clip-rule="evenodd" d="M21.3438 13.1007V7.37158C21.3438 6.42283 20.5738 5.65283 19.625 5.65283C18.6763 5.65283 17.9062 6.42283 17.9062 7.37158V13.1007C17.9062 14.0495 18.6763 14.8195 19.625 14.8195C20.5738 14.8195 21.3438 14.0495 21.3438 13.1007Z" fill="#0062FF"/>
<path fill-rule="evenodd" clip-rule="evenodd" d="M17.9062 40.6006V46.3298C17.9062 47.2785 18.6763 48.0485 19.625 48.0485C20.5738 48.0485 21.3438 47.2785 21.3438 46.3298V40.6006C21.3438 39.6518 20.5738 38.8818 19.625 38.8818C18.6763 38.8818 17.9062 39.6518 17.9062 40.6006Z" fill="#0062FF"/>
<path fill-rule="evenodd" clip-rule="evenodd" d="M12.7497 18.2568H7.02051C6.07176 18.2568 5.30176 19.0268 5.30176 19.9756C5.30176 20.9243 6.07176 21.6943 7.02051 21.6943H12.7497C13.6984 21.6943 14.4684 20.9243 14.4684 19.9756C14.4684 19.0268 13.6984 18.2568 12.7497 18.2568Z" fill="#0062FF"/>
<path fill-rule="evenodd" clip-rule="evenodd" d="M40.25 35.4443H45.9792C46.9279 35.4443 47.6979 34.6743 47.6979 33.7256C47.6979 32.7768 46.9279 32.0068 45.9792 32.0068H40.25C39.3013 32.0068 38.5312 32.7768 38.5312 33.7256C38.5312 34.6743 39.3013 35.4443 40.25 35.4443Z" fill="#0062FF"/>
<path fill-rule="evenodd" clip-rule="evenodd" d="M35.0938 13.1007V7.37158C35.0938 6.42283 34.3238 5.65283 33.375 5.65283C32.4263 5.65283 31.6562 6.42283 31.6562 7.37158V13.1007C31.6562 14.0495 32.4263 14.8195 33.375 14.8195C34.3238 14.8195 35.0938 14.0495 35.0938 13.1007Z" fill="#0062FF"/>
<path fill-rule="evenodd" clip-rule="evenodd" d="M31.6562 40.6006V46.3298C31.6562 47.2785 32.4263 48.0485 33.375 48.0485C34.3238 48.0485 35.0938 47.2785 35.0938 46.3298V40.6006C35.0938 39.6518 34.3238 38.8818 33.375 38.8818C32.4263 38.8818 31.6562 39.6518 31.6562 40.6006Z" fill="#0062FF"/>
<path fill-rule="evenodd" clip-rule="evenodd" d="M12.7497 32.0068H7.02051C6.07176 32.0068 5.30176 32.7768 5.30176 33.7256C5.30176 34.6743 6.07176 35.4443 7.02051 35.4443H12.7497C13.6984 35.4443 14.4684 34.6743 14.4684 33.7256C14.4684 32.7768 13.6984 32.0068 12.7497 32.0068Z" fill="#0062FF"/>
</g>
<defs>
<clipPath id="clip0_74_4731">
<rect width="52" height="50" fill="white"/>
</clipPath>
</defs>
</svg>
