<svg width="35" height="35" viewBox="0 0 35 35" fill="none" xmlns="http://www.w3.org/2000/svg">
<path fill-rule="evenodd" clip-rule="evenodd" d="M11.9525 5.83203H23.0475C24.3995 5.83203 25.0755 5.83203 25.6207 6.02174C26.6546 6.38148 27.4663 7.21708 27.8157 8.2814C28 8.84267 28 9.53859 28 10.9304V27.2686C28 28.2699 26.8508 28.8011 26.1239 28.1359C25.6968 27.7451 25.0532 27.7451 24.6261 28.1359L24.0625 28.6517C23.314 29.3366 22.186 29.3366 21.4375 28.6517C20.689 27.9667 19.561 27.9667 18.8125 28.6517C18.064 29.3366 16.936 29.3366 16.1875 28.6517C15.439 27.9667 14.311 27.9667 13.5625 28.6517C12.814 29.3366 11.686 29.3366 10.9375 28.6517L10.3739 28.1359C9.9468 27.7451 9.3032 27.7451 8.87611 28.1359C8.14916 28.8011 7 28.2699 7 27.2686V10.9304C7 9.53859 7 8.84267 7.18428 8.2814C7.53373 7.21708 8.34542 6.38148 9.37929 6.02174C9.92449 5.83203 10.6005 5.83203 11.9525 5.83203ZM21.0694 13.4148C21.3912 13.0543 21.3599 12.5012 20.9994 12.1793C20.639 11.8575 20.0858 11.8888 19.764 12.2493L16.25 16.1849L15.236 15.0493C14.9142 14.6888 14.361 14.6575 14.0006 14.9793C13.6401 15.3012 13.6088 15.8543 13.9306 16.2148L15.5973 18.0815C15.7633 18.2674 16.0007 18.3737 16.25 18.3737C16.4993 18.3737 16.7367 18.2674 16.9027 18.0815L21.0694 13.4148ZM12.25 20.707C11.7668 20.707 11.375 21.0988 11.375 21.582C11.375 22.0653 11.7668 22.457 12.25 22.457H22.75C23.2332 22.457 23.625 22.0653 23.625 21.582C23.625 21.0988 23.2332 20.707 22.75 20.707H12.25Z" fill="white"/>
</svg>
