<svg width="30" height="30" viewBox="0 0 30 30" fill="none" xmlns="http://www.w3.org/2000/svg">
<path fill-rule="evenodd" clip-rule="evenodd" d="M15 25C20.5228 25 25 20.5228 25 15C25 9.47715 20.5228 5 15 5C9.47715 5 5 9.47715 5 15C5 20.5228 9.47715 25 15 25ZM19 17.0455V14.5488C19 12.4045 19 11.3323 18.4142 10.6662C17.8284 10 16.8856 10 15 10C13.1144 10 12.1716 10 11.5858 10.6662C11 11.3323 11 12.4045 11 14.5488V17.0455C11 18.5937 11 19.3679 11.3263 19.7062C11.4819 19.8675 11.6783 19.9688 11.8875 19.9958C12.3262 20.0522 12.8385 19.5425 13.8632 18.5229C14.3161 18.0722 14.5426 17.8469 14.8046 17.7875C14.9336 17.7583 15.0664 17.7583 15.1954 17.7875C15.4574 17.8469 15.6839 18.0722 16.1368 18.5229C17.1615 19.5425 17.6738 20.0522 18.1125 19.9958C18.3217 19.9688 18.5181 19.8675 18.6737 19.7062C19 19.3679 19 18.5937 19 17.0455Z" fill="#0FE8E8"/>
</svg>
