<svg width="21" height="21" viewBox="0 0 21 21" fill="none" xmlns="http://www.w3.org/2000/svg">
<path d="M16.8917 1.63672H14.4417C13.3833 1.63672 12.75 2.27005 12.75 3.32839V5.77839C12.75 6.83672 13.3833 7.47005 14.4417 7.47005H16.8917C17.95 7.47005 18.5833 6.83672 18.5833 5.77839V3.32839C18.5833 2.27005 17.95 1.63672 16.8917 1.63672ZM17.075 4.39505C16.975 4.49505 16.8417 4.54505 16.7083 4.54505C16.575 4.54505 16.4417 4.49505 16.3417 4.39505L16.1917 4.24505V6.11172C16.1917 6.40339 15.9583 6.63672 15.6667 6.63672C15.375 6.63672 15.1417 6.40339 15.1417 6.11172V4.24505L14.9917 4.39505C14.7917 4.59505 14.4583 4.59505 14.2583 4.39505C14.0583 4.19505 14.0583 3.86172 14.2583 3.66172L15.3 2.62005C15.3417 2.57839 15.4 2.54505 15.4583 2.52005C15.475 2.51172 15.4917 2.51172 15.5083 2.50339C15.55 2.48672 15.5917 2.47839 15.6417 2.47839C15.6583 2.47839 15.675 2.47839 15.6917 2.47839C15.75 2.47839 15.8 2.48672 15.8583 2.51172C15.8667 2.51172 15.8667 2.51172 15.875 2.51172C15.9333 2.53672 15.9833 2.57005 16.025 2.61172C16.0333 2.62005 16.0333 2.62005 16.0417 2.62005L17.0833 3.66172C17.2833 3.86172 17.2833 4.19505 17.075 4.39505Z" fill="white"/>
<path d="M1.91699 9.73099V13.8977C1.91699 15.806 3.45866 17.3477 5.36699 17.3477H15.1253C17.0337 17.3477 18.5837 15.7977 18.5837 13.8893V9.73099C18.5837 9.17266 18.1337 8.72266 17.5753 8.72266H2.92533C2.36699 8.72266 1.91699 9.17266 1.91699 9.73099ZM6.91699 14.556H5.25033C4.90866 14.556 4.62533 14.2727 4.62533 13.931C4.62533 13.5893 4.90866 13.306 5.25033 13.306H6.91699C7.25866 13.306 7.54199 13.5893 7.54199 13.931C7.54199 14.2727 7.25866 14.556 6.91699 14.556ZM12.3337 14.556H9.00033C8.65866 14.556 8.37533 14.2727 8.37533 13.931C8.37533 13.5893 8.65866 13.306 9.00033 13.306H12.3337C12.6753 13.306 12.9587 13.5893 12.9587 13.931C12.9587 14.2727 12.6753 14.556 12.3337 14.556Z" fill="white"/>
<path d="M11.5003 4.02005V6.46172C11.5003 7.02005 11.0503 7.47005 10.492 7.47005H2.92533C2.35866 7.47005 1.91699 7.00339 1.91699 6.44505C1.92533 5.50339 2.30033 4.64505 2.92533 4.02005C3.55033 3.39505 4.41699 3.01172 5.36699 3.01172H10.492C11.0503 3.01172 11.5003 3.46172 11.5003 4.02005Z" fill="white"/>
</svg>
