<svg width="21" height="21" viewBox="0 0 21 21" fill="none" xmlns="http://www.w3.org/2000/svg">
<path d="M17.3917 7.47005H14.9417C13.8833 7.47005 13.25 6.83672 13.25 5.77839V3.32839C13.25 2.27005 13.8833 1.63672 14.9417 1.63672H17.3917C18.45 1.63672 19.0833 2.27005 19.0833 3.32839V5.77839C19.0833 6.83672 18.45 7.47005 17.3917 7.47005ZM17.575 4.71172C17.475 4.61172 17.3417 4.56172 17.2083 4.56172C17.075 4.56172 16.9417 4.61172 16.8417 4.71172L16.6917 4.86172V2.99505C16.6917 2.70339 16.4583 2.47005 16.1667 2.47005C15.875 2.47005 15.6417 2.70339 15.6417 2.99505V4.86172L15.4917 4.71172C15.2917 4.51172 14.9583 4.51172 14.7583 4.71172C14.5583 4.91172 14.5583 5.24505 14.7583 5.44505L15.8 6.48672C15.8417 6.52839 15.9 6.56172 15.9583 6.58672C15.975 6.59505 15.9917 6.59505 16.0083 6.60339C16.05 6.62005 16.0917 6.62839 16.1417 6.62839C16.1583 6.62839 16.175 6.62839 16.1917 6.62839C16.25 6.62839 16.3 6.62005 16.3583 6.59505C16.3667 6.59505 16.3667 6.59505 16.375 6.59505C16.4333 6.57005 16.4833 6.53672 16.525 6.49505C16.5333 6.48672 16.5333 6.48672 16.5417 6.48672L17.5833 5.44505C17.7833 5.24505 17.7833 4.91172 17.575 4.71172Z" fill="white"/>
<path d="M2.41699 9.73099V13.8977C2.41699 15.806 3.95866 17.3477 5.86699 17.3477H15.6253C17.5337 17.3477 19.0837 15.7977 19.0837 13.8893V9.73099C19.0837 9.17266 18.6337 8.72266 18.0753 8.72266H3.42533C2.86699 8.72266 2.41699 9.17266 2.41699 9.73099ZM7.41699 14.556H5.75033C5.40866 14.556 5.12533 14.2727 5.12533 13.931C5.12533 13.5893 5.40866 13.306 5.75033 13.306H7.41699C7.75866 13.306 8.04199 13.5893 8.04199 13.931C8.04199 14.2727 7.75866 14.556 7.41699 14.556ZM12.8337 14.556H9.50033C9.15866 14.556 8.87533 14.2727 8.87533 13.931C8.87533 13.5893 9.15866 13.306 9.50033 13.306H12.8337C13.1753 13.306 13.4587 13.5893 13.4587 13.931C13.4587 14.2727 13.1753 14.556 12.8337 14.556Z" fill="white"/>
<path d="M12.0003 4.02005V6.46172C12.0003 7.02005 11.5503 7.47005 10.992 7.47005H3.42533C2.85866 7.47005 2.41699 7.00339 2.41699 6.44505C2.42533 5.50339 2.80033 4.64505 3.42533 4.02005C4.05033 3.39505 4.91699 3.01172 5.86699 3.01172H10.992C11.5503 3.01172 12.0003 3.46172 12.0003 4.02005Z" fill="white"/>
</svg>
