<svg width="21" height="20" viewBox="0 0 21 20" fill="none" xmlns="http://www.w3.org/2000/svg">
<circle opacity="0.1" cx="10.9619" cy="10" r="10" fill="#F82E2E"/>
<path fill-rule="evenodd" clip-rule="evenodd" d="M14.1282 9.0609C14.2958 9.06264 14.4541 9.12427 14.5683 9.23222C14.6824 9.34017 14.7431 9.48562 14.7369 9.63656L14.6048 12.8567C14.5986 13.0077 14.5261 13.1518 14.4032 13.2573C14.2803 13.3628 14.117 13.4211 13.9494 13.4194L10.3735 13.3826C10.2079 13.3783 10.0524 13.3156 9.9406 13.2079C9.82878 13.1003 9.76956 12.9563 9.77568 12.8071C9.78181 12.6578 9.85279 12.5152 9.97333 12.4099C10.0939 12.3047 10.2544 12.2452 10.4202 12.2443L12.4701 12.2654L7.48256 7.54849C7.36839 7.44052 7.30773 7.29504 7.31392 7.14407C7.32012 6.99309 7.39266 6.84898 7.51559 6.74345C7.63852 6.63791 7.80176 6.57959 7.96942 6.58131C8.13707 6.58304 8.2954 6.64467 8.40957 6.75264L13.3971 11.4695L13.4728 9.62356C13.479 9.47262 13.5516 9.32854 13.6745 9.22303C13.7974 9.11751 13.9606 9.05919 14.1282 9.0609Z" fill="#F82E2E"/>
</svg>
