<svg width="38" height="36" viewBox="0 0 38 36" fill="none" xmlns="http://www.w3.org/2000/svg">
<path d="M22.765 29.1328C24.0403 29.1328 25.185 29.8417 25.7537 30.981L28.1694 35.8125H36.8867C37.2792 35.8125 37.6434 35.6048 37.8445 35.2678C38.0445 34.9297 38.0522 34.5111 37.8641 34.1665L24.5664 9.92344V6.86719H30.1328C30.5829 6.86719 30.9895 6.59651 31.1613 6.18007C31.3341 5.7637 31.2385 5.28529 30.9199 4.96674L29.4805 3.52734L30.92 2.08787C31.2385 1.76932 31.3342 1.29098 31.1614 0.874543C30.9895 0.45825 30.583 0.1875 30.1328 0.1875H23.4531C22.8383 0.1875 22.3399 0.685805 22.3399 1.30078C22.3399 1.58111 22.3399 10.2361 22.3399 9.92344L14.0166 25.183L15.9396 29.1328H22.765Z" fill="#FF7A00"/>
<path d="M1.11325 35.8124H25.6797L23.7608 31.9746C23.5721 31.5975 23.1868 31.3593 22.7652 31.3593H14.5468L8.84565 19.6296C8.64237 19.2904 8.30312 19.0468 7.87918 19.0893C7.48456 19.0937 7.12029 19.3067 6.92465 19.6503L0.146772 34.1469C-0.0499819 34.4915 -0.0489429 34.9144 0.150038 35.258C0.350057 35.6015 0.716401 35.8124 1.11325 35.8124Z" fill="#FF7A00"/>
</svg>
