<svg width="37" height="36" viewBox="0 0 37 36" fill="none" xmlns="http://www.w3.org/2000/svg">
<rect x="0.5" width="36" height="36" rx="4" fill="#FCFCFC"/>
<path d="M27.3868 12.6559C27.011 12.4542 26.2227 12.2434 25.1502 12.9951L23.8027 13.9484C23.7018 11.0976 22.4643 9.97925 19.4577 9.97925H13.9577C10.8227 9.97925 9.60352 11.1984 9.60352 14.3334V21.6667C9.60352 23.7751 10.7493 26.0209 13.9577 26.0209H19.4577C22.4643 26.0209 23.7018 24.9026 23.8027 22.0517L25.1502 23.0051C25.7185 23.4084 26.2135 23.5367 26.6077 23.5367C26.9468 23.5367 27.2127 23.4359 27.3868 23.3442C27.7627 23.1517 28.3952 22.6292 28.3952 21.3184V14.6817C28.3952 13.3709 27.7627 12.8484 27.3868 12.6559ZM18.0827 17.4317C17.1385 17.4317 16.3593 16.6617 16.3593 15.7084C16.3593 14.7551 17.1385 13.9851 18.0827 13.9851C19.0268 13.9851 19.806 14.7551 19.806 15.7084C19.806 16.6617 19.0268 17.4317 18.0827 17.4317Z" fill="#1E02AA"/>
</svg>
