<svg width="51" height="50" viewBox="0 0 51 50" fill="none" xmlns="http://www.w3.org/2000/svg">
<g id="icon">
<path id="Subtract" fill-rule="evenodd" clip-rule="evenodd" d="M21.738 10.3325C21.3321 10.6784 21.1292 10.8513 20.9124 10.9966C20.4156 11.3296 19.8576 11.5607 19.2708 11.6766C19.0148 11.7271 18.749 11.7483 18.2175 11.7907C16.8818 11.8973 16.214 11.9506 15.6568 12.1474C14.3682 12.6026 13.3545 13.6162 12.8994 14.9049C12.7026 15.462 12.6493 16.1299 12.5427 17.4655C12.5003 17.9971 12.4791 18.2629 12.4285 18.5189C12.3127 19.1057 12.0816 19.6636 11.7485 20.1605C11.6033 20.3772 11.4303 20.5802 11.0844 20.986C10.2154 22.0058 9.78083 22.5158 9.52601 23.0489C8.93664 24.282 8.93664 25.7154 9.52601 26.9485C9.78083 27.4816 10.2154 27.9916 11.0844 29.0114C11.4303 29.4172 11.6033 29.6202 11.7485 29.8369C12.0816 30.3338 12.3127 30.8917 12.4285 31.4785C12.4791 31.7345 12.5003 32.0003 12.5427 32.5319C12.6493 33.8675 12.7026 34.5354 12.8994 35.0925C13.3545 36.3812 14.3682 37.3948 15.6568 37.85C16.214 38.0468 16.8818 38.1001 18.2175 38.2067C18.749 38.2491 19.0148 38.2703 19.2708 38.3208C19.8576 38.4367 20.4156 38.6678 20.9124 39.0008C21.1292 39.1461 21.3321 39.319 21.738 39.6649C22.7578 40.534 23.2677 40.9685 23.8008 41.2233C25.0339 41.8127 26.4674 41.8127 27.7005 41.2233C28.2336 40.9685 28.7435 40.534 29.7633 39.6649C30.1692 39.319 30.3721 39.1461 30.5889 39.0008C31.0857 38.6678 31.6437 38.4367 32.2305 38.3208C32.4865 38.2703 32.7523 38.2491 33.2838 38.2067C34.6195 38.1001 35.2873 38.0468 35.8445 37.85C37.1331 37.3948 38.1468 36.3812 38.6019 35.0925C38.7987 34.5354 38.852 33.8675 38.9586 32.5319C39.001 32.0003 39.0222 31.7345 39.0728 31.4785C39.1886 30.8917 39.4197 30.3338 39.7528 29.8369C39.898 29.6202 40.071 29.4172 40.4169 29.0114C41.2859 27.9916 41.7205 27.4816 41.9753 26.9485C42.5647 25.7154 42.5647 24.282 41.9753 23.0489C41.7205 22.5157 41.2859 22.0058 40.4169 20.986C40.071 20.5802 39.898 20.3772 39.7528 20.1605C39.4197 19.6636 39.1886 19.1057 39.0728 18.5189C39.0222 18.2629 39.001 17.9971 38.9586 17.4655C38.852 16.1299 38.7987 15.462 38.6019 14.9049C38.1468 13.6162 37.1331 12.6026 35.8445 12.1474C35.2873 11.9506 34.6195 11.8973 33.2838 11.7907C32.7523 11.7483 32.4865 11.7271 32.2305 11.6766C31.6437 11.5607 31.0857 11.3296 30.5889 10.9966C30.3721 10.8513 30.1692 10.6784 29.7633 10.3325C28.7435 9.46341 28.2336 9.02887 27.7005 8.77406C26.4674 8.18469 25.0339 8.18469 23.8008 8.77406C23.2677 9.02887 22.7578 9.46342 21.738 10.3325ZM32.1355 18.6147C32.6652 19.1444 32.6652 20.0032 32.1355 20.533L21.284 31.3844C20.7543 31.9142 19.8955 31.9142 19.3658 31.3844C18.836 30.8547 18.836 29.9959 19.3658 29.4661L30.2172 18.6147C30.7469 18.085 31.6058 18.085 32.1355 18.6147ZM32.0807 29.521C32.0807 30.5199 31.2709 31.3296 30.2721 31.3296C29.2732 31.3296 28.4635 30.5199 28.4635 29.521C28.4635 28.5222 29.2732 27.7124 30.2721 27.7124C31.2709 27.7124 32.0807 28.5222 32.0807 29.521ZM21.2292 22.2867C22.228 22.2867 23.0378 21.477 23.0378 20.4781C23.0378 19.4793 22.228 18.6695 21.2292 18.6695C20.2303 18.6695 19.4206 19.4793 19.4206 20.4781C19.4206 21.477 20.2303 22.2867 21.2292 22.2867Z" fill="#1E02AA"/>
</g>
</svg>
