<svg width="37" height="36" viewBox="0 0 37 36" fill="none" xmlns="http://www.w3.org/2000/svg">
<rect x="0.5" width="36" height="36" rx="4" fill="#FCFCFC"/>
<path d="M15.9922 23.4081V14.9414C15.9922 14.6081 16.0922 14.2831 16.2755 14.0081L18.5505 10.6248C18.9089 10.0831 19.8005 9.69978 20.5589 9.98311C21.3755 10.2581 21.9172 11.1748 21.7422 11.9914L21.3089 14.7164C21.2755 14.9664 21.3422 15.1914 21.4839 15.3664C21.6255 15.5248 21.8339 15.6248 22.0589 15.6248H25.4839C26.1422 15.6248 26.7089 15.8914 27.0422 16.3581C27.3589 16.8081 27.4172 17.3914 27.2089 17.9831L25.1589 24.2248C24.9005 25.2581 23.7755 26.0998 22.6589 26.0998H19.4089C18.8505 26.0998 18.0672 25.9081 17.7089 25.5498L16.6422 24.7248C16.2339 24.4164 15.9922 23.9248 15.9922 23.4081Z" fill="#0E85FF"/>
<path d="M13.341 13.3169H12.4827C11.191 13.3169 10.666 13.8169 10.666 15.0502V23.4336C10.666 24.6669 11.191 25.1669 12.4827 25.1669H13.341C14.6327 25.1669 15.1577 24.6669 15.1577 23.4336V15.0502C15.1577 13.8169 14.6327 13.3169 13.341 13.3169Z" fill="#0E85FF"/>
</svg>
