<svg width="37" height="36" viewBox="0 0 37 36" fill="none" xmlns="http://www.w3.org/2000/svg">
<rect x="0.5" width="36" height="36" rx="4" fill="#FCFCFC"/>
<path d="M11.166 13.5001C11.166 11.9287 11.166 11.1431 11.6542 10.6549C12.1423 10.1667 12.928 10.1667 14.4993 10.1667C16.0707 10.1667 16.8564 10.1667 17.3445 10.6549C17.8327 11.1431 17.8327 11.9287 17.8327 13.5001V23.5001C17.8327 25.0714 17.8327 25.8571 17.3445 26.3453C16.8564 26.8334 16.0707 26.8334 14.4993 26.8334C12.928 26.8334 12.1423 26.8334 11.6542 26.3453C11.166 25.8571 11.166 25.0714 11.166 23.5001V13.5001Z" fill="#1E02AA"/>
<path d="M21.166 13.5001C21.166 11.9287 21.166 11.1431 21.6542 10.6549C22.1423 10.1667 22.928 10.1667 24.4993 10.1667C26.0707 10.1667 26.8564 10.1667 27.3445 10.6549C27.8327 11.1431 27.8327 11.9287 27.8327 13.5001V23.5001C27.8327 25.0714 27.8327 25.8571 27.3445 26.3453C26.8564 26.8334 26.0707 26.8334 24.4993 26.8334C22.928 26.8334 22.1423 26.8334 21.6542 26.3453C21.166 25.8571 21.166 25.0714 21.166 23.5001V13.5001Z" fill="#1E02AA"/>
</svg>
