<svg width="37" height="36" viewBox="0 0 37 36" fill="none" xmlns="http://www.w3.org/2000/svg">
<rect x="0.5" width="36" height="36" rx="4" fill="#FCFCFC"/>
<path d="M19.678 26.957C19.9528 27.0209 19.9779 27.3807 19.7103 27.4699L18.1303 27.9899C14.1603 29.2699 12.0703 28.1999 10.7803 24.2299L9.50034 20.2799C8.22034 16.3099 9.28034 14.2099 13.2503 12.9299L13.7743 12.7564C14.1772 12.623 14.5693 13.027 14.4549 13.4357C14.3982 13.6383 14.3436 13.8497 14.2903 14.0699L13.3103 18.2599C12.2103 22.9699 13.8203 25.5699 18.5303 26.6899L19.678 26.957Z" fill="#1E02AA"/>
<path d="M24.1702 10.21L22.5002 9.82001C19.1602 9.03001 17.1702 9.68001 16.0002 12.1C15.7002 12.71 15.4602 13.45 15.2602 14.3L14.2802 18.49C13.3002 22.67 14.5902 24.73 18.7602 25.72L20.4402 26.12C21.0202 26.26 21.5602 26.35 22.0602 26.39C25.1802 26.69 26.8402 25.23 27.6802 21.62L28.6602 17.44C29.6402 13.26 28.3602 11.19 24.1702 10.21ZM22.2902 20.33C22.2002 20.67 21.9002 20.89 21.5602 20.89C21.5002 20.89 21.4402 20.88 21.3702 20.87L18.4602 20.13C18.0602 20.03 17.8202 19.62 17.9202 19.22C18.0202 18.82 18.4302 18.58 18.8302 18.68L21.7402 19.42C22.1502 19.52 22.3902 19.93 22.2902 20.33ZM25.2202 16.95C25.1302 17.29 24.8302 17.51 24.4902 17.51C24.4302 17.51 24.3702 17.5 24.3002 17.49L19.4502 16.26C19.0502 16.16 18.8102 15.75 18.9102 15.35C19.0102 14.95 19.4202 14.71 19.8202 14.81L24.6702 16.04C25.0802 16.13 25.3202 16.54 25.2202 16.95Z" fill="#1E02AA"/>
</svg>
