<svg width="37" height="36" viewBox="0 0 37 36" fill="none" xmlns="http://www.w3.org/2000/svg">
<rect x="0.5" width="36" height="36" rx="4" fill="#FCFCFC"/>
<path d="M27.25 8.5H10.75C10.1533 8.5 9.58097 8.73705 9.15901 9.15901C8.73705 9.58097 8.5 10.1533 8.5 10.75V21.25C8.5 21.8467 8.73705 22.419 9.15901 22.841C9.58097 23.2629 10.1533 23.5 10.75 23.5H14.1925L16.2175 25.5325C16.2876 25.602 16.3707 25.657 16.4621 25.6943C16.5534 25.7317 16.6513 25.7506 16.75 25.75H18.25V26.035L14.1625 28.0825C14.0002 28.1801 13.8809 28.3355 13.8285 28.5175C13.7761 28.6995 13.7944 28.8945 13.8799 29.0635C13.9653 29.2325 14.1115 29.363 14.2892 29.4286C14.4668 29.4943 14.6627 29.4903 14.8375 29.4175L18.25 27.715V28C18.25 28.1989 18.329 28.3897 18.4697 28.5303C18.6103 28.671 18.8011 28.75 19 28.75C19.1989 28.75 19.3897 28.671 19.5303 28.5303C19.671 28.3897 19.75 28.1989 19.75 28V27.715L23.1625 29.4175C23.2662 29.473 23.3823 29.5014 23.5 29.5C23.6385 29.4996 23.7742 29.4608 23.892 29.388C24.0098 29.3152 24.1052 29.2112 24.1675 29.0875C24.2565 28.9104 24.2717 28.7052 24.2098 28.5169C24.148 28.3286 24.0141 28.1724 23.8375 28.0825L19.75 26.035V25.75H21.25C21.3487 25.7506 21.4466 25.7317 21.5379 25.6943C21.6293 25.657 21.7124 25.602 21.7825 25.5325L23.8075 23.5H27.25C27.8467 23.5 28.419 23.2629 28.841 22.841C29.2629 22.419 29.5 21.8467 29.5 21.25V10.75C29.5 10.1533 29.2629 9.58097 28.841 9.15901C28.419 8.73705 27.8467 8.5 27.25 8.5ZM13 19C13 18.8011 13.079 18.6103 13.2197 18.4697C13.3603 18.329 13.5511 18.25 13.75 18.25H21.25C21.4489 18.25 21.6397 18.329 21.7803 18.4697C21.921 18.6103 22 18.8011 22 19C22 19.1989 21.921 19.3897 21.7803 19.5303C21.6397 19.671 21.4489 19.75 21.25 19.75H13.75C13.5511 19.75 13.3603 19.671 13.2197 19.5303C13.079 19.3897 13 19.1989 13 19ZM13 16C13 15.8011 13.079 15.6103 13.2197 15.4697C13.3603 15.329 13.5511 15.25 13.75 15.25H17.5C17.6989 15.25 17.8897 15.329 18.0303 15.4697C18.171 15.6103 18.25 15.8011 18.25 16C18.25 16.1989 18.171 16.3897 18.0303 16.5303C17.8897 16.671 17.6989 16.75 17.5 16.75H13.75C13.5511 16.75 13.3603 16.671 13.2197 16.5303C13.079 16.3897 13 16.1989 13 16ZM20.9425 24.25H17.0575L16.3075 23.5H21.6925L20.9425 24.25ZM24.25 13.75H13.75C13.5511 13.75 13.3603 13.671 13.2197 13.5303C13.079 13.3897 13 13.1989 13 13C13 12.8011 13.079 12.6103 13.2197 12.4697C13.3603 12.329 13.5511 12.25 13.75 12.25H24.25C24.4489 12.25 24.6397 12.329 24.7803 12.4697C24.921 12.6103 25 12.8011 25 13C25 13.1989 24.921 13.3897 24.7803 13.5303C24.6397 13.671 24.4489 13.75 24.25 13.75Z" fill="#1E02AA"/>
</svg>
