<svg width="37" height="36" viewBox="0 0 37 36" fill="none" xmlns="http://www.w3.org/2000/svg">
<rect x="0.5" width="36" height="36" rx="4" fill="#FCFCFC"/>
<path fill-rule="evenodd" clip-rule="evenodd" d="M10.1895 17.8751C10.5091 13.5646 14.1076 10.1667 18.4997 10.1667C17.8073 10.1667 17.1908 10.4703 16.6837 10.9344C16.1791 11.3961 15.7527 12.0407 15.4078 12.8027C15.0609 13.5692 14.7914 14.4656 14.609 15.4385C14.4628 16.2184 14.3738 17.0405 14.3441 17.8751H10.1895ZM10.1895 19.1251H14.3441C14.3738 19.9597 14.4628 20.7818 14.609 21.5617C14.7914 22.5345 15.0609 23.431 15.4078 24.1975C15.7527 24.9594 16.1791 25.604 16.6837 26.0658C17.1908 26.5299 17.8073 26.8334 18.4997 26.8334C14.1076 26.8334 10.5091 23.4355 10.1895 19.1251Z" fill="#1E02AA"/>
<path d="M18.4997 11.3295C18.2705 11.3295 17.9745 11.4271 17.6302 11.7421C17.2834 12.0595 16.9362 12.5569 16.6295 13.2346C16.3248 13.9078 16.0773 14.7204 15.9071 15.6286C15.773 16.3438 15.6898 17.1019 15.6606 17.8751H21.3388C21.3096 17.1019 21.2264 16.3438 21.0923 15.6286C20.9221 14.7204 20.6746 13.9078 20.3699 13.2346C20.0632 12.5569 19.716 12.0595 19.3692 11.7421C19.0249 11.4271 18.7289 11.3295 18.4997 11.3295Z" fill="#1E02AA"/>
<path d="M15.9071 21.3716C16.0773 22.2797 16.3248 23.0924 16.6295 23.7656C16.9362 24.4433 17.2834 24.9407 17.6302 25.2581C17.9745 25.5731 18.2705 25.6706 18.4997 25.6706C18.7289 25.6706 19.0249 25.5731 19.3692 25.2581C19.716 24.9407 20.0632 24.4433 20.3699 23.7656C20.6746 23.0924 20.9221 22.2797 21.0923 21.3716C21.2264 20.6564 21.3096 19.8983 21.3388 19.1251H15.6606C15.6898 19.8983 15.773 20.6564 15.9071 21.3716Z" fill="#1E02AA"/>
<path d="M18.4997 10.1667C19.1921 10.1667 19.8086 10.4703 20.3157 10.9344C20.8203 11.3961 21.2467 12.0407 21.5916 12.8027C21.9385 13.5692 22.208 14.4657 22.3904 15.4385C22.5366 16.2184 22.6256 17.0405 22.6553 17.8751H26.8099C26.4903 13.5646 22.8918 10.1667 18.4997 10.1667Z" fill="#1E02AA"/>
<path d="M22.3904 21.5617C22.208 22.5345 21.9385 23.431 21.5916 24.1975C21.2467 24.9594 20.8203 25.604 20.3157 26.0658C19.8086 26.5299 19.1921 26.8334 18.4997 26.8334C22.8918 26.8334 26.4903 23.4355 26.8099 19.1251H22.6553C22.6256 19.9597 22.5366 20.7818 22.3904 21.5617Z" fill="#1E02AA"/>
</svg>
