<svg width="37" height="36" viewBox="0 0 37 36" fill="none" xmlns="http://www.w3.org/2000/svg">
<rect x="0.5" width="36" height="36" rx="4" fill="#FCFCFC"/>
<path d="M22.0092 12.5833V21.0499C22.0092 21.3833 21.9092 21.7083 21.7258 21.9833L19.4508 25.3666C19.0925 25.9083 18.2008 26.2916 17.4425 26.0083C16.6258 25.7333 16.0842 24.8166 16.2592 23.9999L16.6925 21.2749C16.7258 21.0249 16.6592 20.7999 16.5175 20.6249C16.3758 20.4666 16.1675 20.3666 15.9425 20.3666H12.5175C11.8592 20.3666 11.2925 20.0999 10.9592 19.6333C10.6425 19.1833 10.5842 18.5999 10.7925 18.0083L12.8425 11.7666C13.1008 10.7333 14.2258 9.8916 15.3425 9.8916H18.5925C19.1508 9.8916 19.9342 10.0833 20.2925 10.4416L21.3592 11.2666C21.7675 11.5833 22.0092 12.0666 22.0092 12.5833Z" fill="#FF4747"/>
<path d="M24.6585 22.6752H25.5168C26.8085 22.6752 27.3335 22.1752 27.3335 20.9418V12.5668C27.3335 11.3335 26.8085 10.8335 25.5168 10.8335H24.6585C23.3668 10.8335 22.8418 11.3335 22.8418 12.5668V20.9502C22.8418 22.1752 23.3668 22.6752 24.6585 22.6752Z" fill="#FF4747"/>
</svg>
