<svg width="24" height="25" viewBox="0 0 24 25" fill="none" xmlns="http://www.w3.org/2000/svg">
<path d="M16 3.62891C18.7614 3.62891 21 5.86749 21 8.62891V16.6289C21 19.3903 18.7614 21.6289 16 21.6289H8C5.23858 21.6289 3 19.3903 3 16.6289L3 8.62891C3 5.86749 5.23858 3.62891 8 3.62891L16 3.62891ZM12 8.62891C9.79086 8.62891 8 10.4198 8 12.6289C8 14.838 9.79086 16.6289 12 16.6289C14.2091 16.6289 16 14.838 16 12.6289C16 10.4198 14.2091 8.62891 12 8.62891ZM12 10.6289C13.1046 10.6289 14 11.5243 14 12.6289C14 13.7335 13.1046 14.6289 12 14.6289C10.8954 14.6289 10 13.7335 10 12.6289C10 11.5243 10.8954 10.6289 12 10.6289ZM16.5 7.12891C15.9477 7.12891 15.5 7.57663 15.5 8.12891C15.5 8.68119 15.9477 9.12891 16.5 9.12891C17.0523 9.12891 17.5 8.68119 17.5 8.12891C17.5 7.57663 17.0523 7.12891 16.5 7.12891Z" fill="url(#paint0_linear_1193_49510)"/>
<defs>
<linearGradient id="paint0_linear_1193_49510" x1="24.5" y1="8.00195" x2="8.5" y2="33.002" gradientUnits="userSpaceOnUse">
<stop stop-color="#6C47FF"/>
<stop offset="0.291667" stop-color="#FF4768"/>
<stop offset="0.461458" stop-color="#FF9F47"/>
<stop offset="0.773958" stop-color="#FF47B5"/>
<stop offset="0.89375" stop-color="#47A7FF"/>
</linearGradient>
</defs>
</svg>
