<svg width="37" height="36" viewBox="0 0 37 36" fill="none" xmlns="http://www.w3.org/2000/svg">
<rect x="0.5" width="36" height="36" rx="4" fill="#FCFCFC"/>
<path d="M20.1243 10C20.1243 9.65482 19.8445 9.375 19.4993 9.375C19.1542 9.375 18.8743 9.65482 18.8743 10V11.6667C18.8743 12.0118 19.1542 12.2917 19.4993 12.2917C19.8445 12.2917 20.1243 12.0118 20.1243 11.6667V10Z" fill="#1E02AA"/>
<path fill-rule="evenodd" clip-rule="evenodd" d="M28.4577 17.5471C28.4577 19.0786 28.4577 20.2916 28.3301 21.2409C28.1987 22.2179 27.9219 23.0087 27.2983 23.6324C26.6747 24.256 25.8839 24.5328 24.9069 24.6641C23.9575 24.7918 22.7445 24.7918 21.2131 24.7917H17.7856C16.2542 24.7918 15.0412 24.7918 14.0918 24.6641C13.1148 24.5328 12.324 24.256 11.7004 23.6324C11.0767 23.0087 10.8 22.2179 10.6686 21.2409C10.541 20.2916 10.541 19.0785 10.541 17.5471L10.541 17.3104C10.541 17.1274 10.5411 16.949 10.5415 16.7752C10.5421 16.4555 10.5437 16.1512 10.5477 15.8616C10.5589 15.0489 10.5889 14.3526 10.6686 13.7593C10.8 12.7823 11.0767 11.9915 11.7004 11.3679C12.324 10.7442 13.1148 10.4675 14.0918 10.3361C14.6889 10.2558 15.3902 10.226 16.2094 10.215C16.3471 10.2131 16.5616 10.2118 16.7898 10.2108C17.2505 10.2087 17.6243 10.5823 17.6243 11.043V11.6667C17.6243 12.7023 18.4638 13.5417 19.4993 13.5417C20.5349 13.5417 21.3743 12.7023 21.3743 11.6667V11.0419C21.3743 10.5816 21.7477 10.2078 22.208 10.21C23.2819 10.2151 24.1732 10.2375 24.9069 10.3361C25.8839 10.4675 26.6747 10.7442 27.2983 11.3679C27.9219 11.9915 28.1987 12.7823 28.3301 13.7593C28.4577 14.7086 28.4577 15.9216 28.4577 17.4531V17.5471ZM16.166 15.6251C15.8208 15.6251 15.541 15.9049 15.541 16.2501C15.541 16.5952 15.8208 16.8751 16.166 16.8751H22.8327C23.1779 16.8751 23.4577 16.5952 23.4577 16.2501C23.4577 15.9049 23.1779 15.6251 22.8327 15.6251H16.166ZM16.166 18.5417C15.8208 18.5417 15.541 18.8216 15.541 19.1667C15.541 19.5119 15.8208 19.7917 16.166 19.7917H20.7493C21.0945 19.7917 21.3743 19.5119 21.3743 19.1667C21.3743 18.8216 21.0945 18.5417 20.7493 18.5417H16.166Z" fill="#1E02AA"/>
</svg>
