<svg width="49" height="49" viewBox="0 0 49 49" fill="none" xmlns="http://www.w3.org/2000/svg">
<circle cx="24.375" cy="24.2344" r="24" fill="#EDEFF2"/>
<path opacity="0.5" d="M14 28.5781C14 25.7497 14 24.3355 14.8787 23.4568C15.7574 22.5781 17.1716 22.5781 20 22.5781H28C30.8284 22.5781 32.2426 22.5781 33.1213 23.4568C34 24.3355 34 25.7497 34 28.5781C34 31.4066 34 32.8208 33.1213 33.6994C32.2426 34.5781 30.8284 34.5781 28 34.5781H20C17.1716 34.5781 15.7574 34.5781 14.8787 33.6994C14 32.8208 14 31.4066 14 28.5781Z" fill="#0062FF"/>
<path d="M24 30.5781C25.1046 30.5781 26 29.6827 26 28.5781C26 27.4736 25.1046 26.5781 24 26.5781C22.8954 26.5781 22 27.4736 22 28.5781C22 29.6827 22.8954 30.5781 24 30.5781Z" fill="#0062FF"/>
<path d="M18.75 20.5781C18.75 17.6786 21.1005 15.3281 24 15.3281C26.8995 15.3281 29.25 17.6786 29.25 20.5781V22.5817C29.8174 22.587 30.3135 22.6001 30.75 22.6327V20.5781C30.75 16.8502 27.7279 13.8281 24 13.8281C20.2721 13.8281 17.25 16.8502 17.25 20.5781V22.6327C17.6865 22.6001 18.1826 22.587 18.75 22.5817V20.5781Z" fill="#0062FF"/>
</svg>
