<svg width="20" height="20" viewBox="0 0 20 20" fill="none" xmlns="http://www.w3.org/2000/svg">
<g id="logo" clip-path="url(#clip0_1193_142998)">
<g id="Group">
<path id="Vector" d="M19.7874 10.2237C19.7874 9.56537 19.7291 8.94036 19.6291 8.33203H10.2124V12.0904H15.6041C15.3624 13.3237 14.6541 14.3654 13.6041 15.0737V17.5737H16.8207C18.7041 15.832 19.7874 13.2654 19.7874 10.2237Z" fill="#4285F4"/>
<path id="Vector_2" d="M10.2126 20.0018C12.9126 20.0018 15.1709 19.1018 16.8209 17.5768L13.6043 15.0768C12.7043 15.6768 11.5626 16.0435 10.2126 16.0435C7.60427 16.0435 5.39593 14.2852 4.60427 11.9102H1.2876V14.4852C2.92926 17.7518 6.30427 20.0018 10.2126 20.0018Z" fill="#34A853"/>
<path id="Vector_3" d="M4.60407 11.9073C4.39574 11.3073 4.2874 10.6656 4.2874 9.99896C4.2874 9.33229 4.40407 8.69062 4.60407 8.09062V5.51562H1.2874C0.604068 6.86562 0.212402 8.38229 0.212402 9.99896C0.212402 11.6156 0.604068 13.1323 1.2874 14.4823L4.60407 11.9073Z" fill="#FBBC05"/>
<path id="Vector_4" d="M10.2126 3.95833C11.6876 3.95833 13.0043 4.46667 14.0459 5.45834L16.8959 2.60833C15.1709 0.991667 12.9126 0 10.2126 0C6.30427 0 2.92926 2.25 1.2876 5.51667L4.60427 8.09167C5.39593 5.71667 7.60427 3.95833 10.2126 3.95833Z" fill="#EA4335"/>
</g>
</g>
<defs>
<clipPath id="clip0_1193_142998">
<rect width="20" height="20" fill="white"/>
</clipPath>
</defs>
</svg>
