<svg width="38" height="44" viewBox="0 0 38 44" fill="none" xmlns="http://www.w3.org/2000/svg">
<path d="M27.2322 8.07812C27.2322 10.3555 26.4502 12.2633 24.8947 13.8273C23.3393 15.3828 21.4229 16.1648 19.1455 16.1648C16.8768 16.1648 14.9604 15.3828 13.4049 13.8273C11.8494 12.2719 11.0674 10.3555 11.0674 8.07812C11.0674 5.80078 11.8494 3.89297 13.4049 2.32891C14.9604 0.764844 16.8854 0 19.1541 0C21.4314 0 23.3393 0.782031 24.9033 2.3375C26.4674 3.89297 27.2408 5.80937 27.2322 8.07812Z" fill="#0062FF"/>
<path d="M37.8887 16.6201V35.217C37.8887 36.2396 37.098 37.0818 36.084 37.1506C33.291 37.3482 30.541 37.9842 27.9457 39.0326C25.1613 40.1498 22.5574 41.6795 20.2199 43.5701C19.5066 44.1373 18.5012 44.1373 17.7879 43.5701C15.4504 41.6795 12.8465 40.1498 10.0621 39.0326C7.4668 37.9842 4.7168 37.3482 1.92383 37.1506C0.909766 37.0818 0.119141 36.231 0.119141 35.217V16.6201C0.127734 15.5459 0.995703 14.6779 2.06992 14.6779C2.13867 14.6779 2.19883 14.6779 2.26758 14.6865C4.82852 14.9443 7.37226 15.6576 9.90742 16.8349C13.1387 18.3389 16.1809 20.4357 19.0082 23.1342C21.8441 20.4443 24.8777 18.3389 28.109 16.8349C30.6355 15.6576 33.1879 14.9443 35.7488 14.6865C36.8145 14.5748 37.777 15.3482 37.8887 16.4224C37.8801 16.4912 37.8887 16.5599 37.8887 16.6201Z" fill="#0062FF"/>
</svg>
