<svg width="26" height="26" viewBox="0 0 26 26" fill="none" xmlns="http://www.w3.org/2000/svg">
<path d="M12.5474 0.777344C19.3912 0.777344 25.0449 6.39006 25.0449 13.1667C25.0356 20.3407 19.6355 25.7799 12.5287 25.7613C5.42188 25.7426 0.0311391 20.2493 0.06658 13.1014C0.0982902 6.36394 5.75764 0.777344 12.5474 0.777344ZM12.5287 22.6444C17.6564 22.6593 21.8552 18.5612 21.872 13.5323C21.887 8.02966 17.9847 3.99127 12.6332 3.97262C7.28159 3.95396 3.23201 7.98116 3.21895 13.288C3.21256 14.5147 3.44872 15.7306 3.91386 16.8657C4.37899 18.0008 5.06393 19.0328 5.92928 19.9023C6.79463 20.7718 7.82332 21.4617 8.95621 21.9323C10.0891 22.4029 11.3038 22.6449 12.5306 22.6444H12.5287Z" fill="#FF7A71"/>
<path d="M15.4217 17.7801C14.5599 17.6943 13.9555 17.5096 13.3978 17.6048C12.5285 17.7285 11.6834 17.9858 10.8927 18.3677C9.83881 18.9179 8.95465 18.9273 8.42677 18.1382C7.86718 17.297 8.14138 16.3849 9.18408 15.7264C11.1986 14.4561 13.3568 14.0364 15.6716 14.7079C16.5894 14.9728 17.0035 15.6686 16.843 16.5397C16.7958 16.8832 16.6258 17.198 16.3646 17.426C16.1033 17.654 15.7684 17.7797 15.4217 17.7801Z" fill="#FF7A71"/>
<path d="M9.3953 8.61723C9.81707 8.61411 10.2233 8.77606 10.5273 9.0685C10.8312 9.36094 11.0087 9.76065 11.0219 10.1822C10.9956 10.5868 10.8252 10.9685 10.5414 11.2581C10.2577 11.5477 9.87946 11.7259 9.47551 11.7603C9.07055 11.7556 8.68225 11.5984 8.38803 11.3201C8.09382 11.0418 7.91532 10.6628 7.88813 10.2587C7.8706 10.05 7.89652 9.83998 7.96428 9.64182C8.03203 9.44367 8.14013 9.26172 8.28177 9.10747C8.4234 8.95322 8.59549 8.83001 8.78715 8.74563C8.97881 8.66125 9.18589 8.61753 9.3953 8.61723Z" fill="#FF7A71"/>
<path d="M15.6328 11.7412C15.2106 11.7291 14.8097 11.5528 14.5154 11.2497C14.221 10.9467 14.0565 10.5408 14.0566 10.1184C14.0916 9.71524 14.2733 9.33891 14.5673 9.06077C14.8612 8.78264 15.247 8.62202 15.6515 8.60938C15.8612 8.60923 16.0688 8.6514 16.2619 8.73336C16.455 8.81532 16.6295 8.93538 16.7751 9.08636C16.9207 9.23735 17.0343 9.41615 17.1092 9.61207C17.1841 9.80799 17.2187 10.017 17.2109 10.2266C17.194 10.6339 17.0204 11.0189 16.7263 11.3012C16.4323 11.5834 16.0405 11.7411 15.6328 11.7412Z" fill="#FF7A71"/>
</svg>
