<svg width="26" height="26" viewBox="0 0 26 26" fill="none" xmlns="http://www.w3.org/2000/svg">
<path d="M0.0449219 13.135C0.0449219 6.36767 5.71917 0.768029 12.5704 0.777355C19.3564 0.777355 25.0101 6.39751 25.0213 13.1331C25.0344 20.2847 19.612 25.7575 12.5238 25.7612C5.43565 25.765 0.0449219 20.3164 0.0449219 13.135ZM12.4958 22.648C17.5583 22.6742 21.841 18.5537 21.869 13.633C21.8988 8.10427 17.963 3.99874 12.6096 3.97635C7.29536 3.95397 3.32786 7.92893 3.19169 13.1928C3.06671 18.0482 7.18903 22.7394 12.4958 22.6443V22.648Z" fill="#DDDDDB"/>
<path d="M12.4635 18.1271C11.0981 18.1271 9.73274 18.142 8.3692 18.1271C7.30971 18.1122 6.69043 17.5134 6.69043 16.5603C6.69043 15.6071 7.3265 14.9785 8.3692 14.971C11.1597 14.9524 13.9508 14.9524 16.7425 14.971C17.7815 14.971 18.3672 15.6108 18.3523 16.5938C18.3392 17.5358 17.7741 18.1047 16.7537 18.1234C15.3156 18.1532 13.8886 18.1271 12.4635 18.1271Z" fill="#DDDDDB"/>
<path d="M9.28025 11.7622C8.87448 11.756 8.4859 11.5974 8.19177 11.3178C7.89765 11.0381 7.71955 10.6581 7.69288 10.2531C7.67697 10.0446 7.70426 9.83506 7.77303 9.63756C7.8418 9.44007 7.95058 9.25889 8.09256 9.10535C8.23455 8.95181 8.40668 8.82921 8.5982 8.74523C8.78973 8.66125 8.99652 8.61769 9.20564 8.61727C9.61154 8.61323 10.0038 8.76357 10.303 9.03785C10.6022 9.31214 10.7861 9.68987 10.8173 10.0946C10.8212 10.5159 10.6644 10.9229 10.3789 11.2327C10.0934 11.5425 9.70049 11.7318 9.28025 11.7622Z" fill="#DDDDDB"/>
<path d="M15.4191 8.61515C15.6212 8.60514 15.8232 8.63542 16.0135 8.70423C16.2038 8.77304 16.3785 8.87901 16.5274 9.01597C16.6763 9.15293 16.7965 9.31814 16.881 9.50199C16.9655 9.68584 17.0126 9.88466 17.0195 10.0869C17.0344 10.5104 16.8832 10.923 16.5981 11.2367C16.3131 11.5503 15.9167 11.7401 15.4937 11.7656C14.673 11.7862 13.8578 10.9897 13.8653 10.1689C13.8852 9.76328 14.0553 9.37952 14.3425 9.09232C14.6297 8.80513 15.0134 8.63504 15.4191 8.61515Z" fill="#DDDDDB"/>
</svg>
