<svg width="44" height="44" viewBox="0 0 44 44" fill="none" xmlns="http://www.w3.org/2000/svg">
<path d="M12.7527 8.51892C15.251 9.77785 19.1528 11.7179 21.6902 12.9877C21.7859 13.0368 21.8919 13.0624 21.9996 13.0624C22.1072 13.0624 22.2132 13.0368 22.3089 12.9876L26.8945 10.6983L29.6308 9.33013L31.2464 8.51888C31.3587 8.46092 31.4529 8.37317 31.5187 8.26525C31.5844 8.15732 31.6192 8.03338 31.6192 7.907C31.6192 7.78063 31.5844 7.65669 31.5187 7.54876C31.4529 7.44084 31.3587 7.35309 31.2464 7.29513L22.3089 2.82638C22.2137 2.77559 22.1075 2.74902 21.9995 2.74902C21.8916 2.74902 21.7854 2.77559 21.6902 2.82638L12.7527 7.29513C12.6404 7.35309 12.5462 7.44084 12.4804 7.54877C12.4147 7.6567 12.3799 7.78064 12.3799 7.90702C12.3799 8.03341 12.4147 8.15735 12.4804 8.26528C12.5462 8.37321 12.6404 8.46096 12.7527 8.51892Z" fill="#00BF58"/>
<path d="M22.0001 14.4383C21.6801 14.4374 21.3647 14.3621 21.0788 14.2183L15.7301 11.5439V14.9264C15.6746 16.8932 19.5375 18.0298 22 18.0547C22.7556 18.1256 28.2133 17.463 28.2702 14.9265L28.2701 11.5509L22.9213 14.2184C22.6354 14.3621 22.3201 14.4374 22.0001 14.4383Z" fill="#00BF58"/>
<path d="M18.3769 36.3354V39.8761H14.4513C14.2711 39.8794 14.0995 39.9533 13.9733 40.0819C13.8471 40.2104 13.7764 40.3834 13.7764 40.5636C13.7764 40.7438 13.8471 40.9167 13.9733 41.0453C14.0995 41.1739 14.2712 41.2478 14.4513 41.2511H29.5488C29.7289 41.2478 29.9006 41.1739 30.0268 41.0453C30.153 40.9167 30.2237 40.7437 30.2237 40.5636C30.2237 40.3834 30.153 40.2104 30.0268 40.0819C29.9006 39.9533 29.7289 39.8794 29.5488 39.8761H25.6232V36.3354H18.3769Z" fill="#00BF58"/>
<path d="M11.0683 8.41602H7.52766C6.51142 8.41604 5.53671 8.81928 4.81747 9.53722C4.09824 10.2552 3.69325 11.2292 3.69141 12.2454V31.1241C3.69182 32.1415 4.09612 33.117 4.81547 33.8363C5.53482 34.5557 6.51034 34.96 7.52766 34.9604H36.4714C37.4887 34.96 38.4642 34.5557 39.1836 33.8363C39.9029 33.117 40.3072 32.1415 40.3077 31.1241V12.2454C40.3058 11.2292 39.9008 10.2552 39.1816 9.53722C38.4624 8.81928 37.4876 8.41604 36.4714 8.41602H32.9308C32.8591 8.71386 32.7202 8.99135 32.5248 9.22728C32.3294 9.46321 32.0826 9.65131 31.8033 9.77721C31.3509 10.0049 30.0687 10.6534 29.6445 10.8635V14.9266C29.7727 18.4627 23.4548 19.5407 21.9995 19.4297C18.6213 19.3424 14.3168 17.9211 14.3545 14.9267L14.3545 10.8566L12.1408 9.74972C11.8751 9.61973 11.6413 9.43285 11.4559 9.20236C11.2706 8.97186 11.1382 8.7034 11.0683 8.41602Z" fill="#00BF58"/>
</svg>
