<svg width="35" height="22" viewBox="0 0 35 22" fill="none" xmlns="http://www.w3.org/2000/svg">
<path d="M0.875 4C0.875 2.067 2.442 0.5 4.375 0.5H30.375C32.308 0.5 33.875 2.067 33.875 4V18C33.875 19.933 32.308 21.5 30.375 21.5H4.375C2.442 21.5 0.875 19.933 0.875 18V4Z" fill="white" stroke="#EEEEEE"/>
<path d="M21.474 5.05579C20.8366 4.31682 19.6842 4 18.21 4H13.9313C13.63 4.00001 13.3734 4.22284 13.3262 4.5255L11.5447 16.0167C11.5093 16.2433 11.6818 16.4485 11.9076 16.4485H14.5491L15.2125 12.1691L15.1919 12.3031C15.2391 12.0007 15.4935 11.7775 15.7947 11.7775H17.0499C19.5158 11.7775 21.4466 10.7589 22.0107 7.81228C22.0274 7.72513 22.0419 7.64031 22.0544 7.55744C21.9833 7.5191 21.9833 7.5191 22.0544 7.55744C22.2224 6.46833 22.0533 5.72698 21.474 5.05579Z" fill="#27346A"/>
<path d="M16.2232 7.1651C16.2954 7.13013 16.3744 7.11201 16.4544 7.11206H19.8087C20.2059 7.11206 20.5764 7.13835 20.915 7.19377C21.0097 7.20913 21.104 7.22747 21.1976 7.24876C21.3303 7.27854 21.4614 7.31499 21.5906 7.35797C21.757 7.4145 21.912 7.48034 22.0545 7.55744C22.2224 6.46791 22.0533 5.72698 21.474 5.05579C20.8362 4.31682 19.6842 4 18.21 4H13.931C13.6297 4 13.3734 4.22306 13.3262 4.5255L11.5447 16.0163C11.5093 16.2432 11.6818 16.4481 11.9072 16.4481H14.5491L15.9254 7.57177C15.9529 7.39466 16.0642 7.24261 16.2232 7.1651Z" fill="#27346A"/>
<path d="M22.0104 7.81148C21.4463 10.7577 19.5156 11.7767 17.0496 11.7767H15.7941C15.4928 11.7767 15.2384 11.9999 15.1916 12.3023L14.3663 17.6232C14.3355 17.8215 14.4863 18.0012 14.6836 18.0012H16.9102C17.1738 18.0011 17.3981 17.8062 17.4393 17.5415L17.4609 17.4261L17.8806 14.7211L17.9077 14.5716C17.9488 14.3069 18.1731 14.112 18.4366 14.1119H18.7699C20.9269 14.1119 22.6159 13.2206 23.1094 10.6431C23.3154 9.56596 23.2088 8.66664 22.6639 8.03496C22.4986 7.84363 22.2933 7.68562 22.0541 7.55664C22.0412 7.63993 22.0272 7.72433 22.0104 7.81148Z" fill="#2790C3"/>
<path d="M21.4643 7.31741C21.3764 7.29129 21.2876 7.26817 21.1981 7.24808C21.1045 7.22713 21.0102 7.20892 20.9155 7.19345C20.5766 7.13767 20.2064 7.11133 19.8088 7.11133H16.4549C16.3748 7.11114 16.2958 7.12942 16.2237 7.16479C16.0645 7.24207 15.9531 7.39423 15.9259 7.57146L15.213 12.1685L15.1924 12.3025C15.2393 12 15.4937 11.7769 15.7949 11.7769H17.0505C19.5164 11.7769 21.4472 10.7582 22.0112 7.81159C22.028 7.72445 22.0421 7.63999 22.055 7.55675C21.9122 7.48007 21.7576 7.41382 21.5911 7.35766C21.5491 7.34349 21.5068 7.33007 21.4644 7.31741" fill="#2B3674"/>
</svg>
