<svg width="25" height="26" viewBox="0 0 25 26" fill="none" xmlns="http://www.w3.org/2000/svg">
<path d="M12.4761 25.7611C5.34879 25.7518 0.0103102 20.3368 0.0215019 13.1293C0.0326937 6.41427 5.71252 0.777344 12.4873 0.777344C19.2919 0.777344 25.0165 6.43852 24.9997 13.1853C24.9904 20.3723 19.6071 25.7723 12.4761 25.7611ZM3.19251 13.4334C3.05634 17.6378 6.46423 22.6946 12.4985 22.7039C18.2212 22.7039 21.8249 18.0705 21.8417 13.4483C21.8585 8.05946 17.7642 3.93529 12.4649 3.967C7.16559 3.99871 3.19251 8.052 3.19251 13.4334Z" fill="#1EC88B"/>
<path d="M12.4558 19.7903C10.1223 19.7903 8.11899 18.4193 7.34676 16.3077C6.9737 15.2912 7.30386 14.3417 8.13578 14.034C9.03299 13.7019 9.85745 14.1067 10.2678 15.1363C10.6782 16.166 11.4355 16.6286 12.4875 16.651C13.5395 16.6733 14.3043 16.1156 14.7464 15.1587C15.2407 14.0862 16.0521 13.6665 16.94 14.0582C17.7607 14.4182 18.0237 15.3247 17.6115 16.3749C16.7796 18.4995 14.8322 19.8052 12.4558 19.7903Z" fill="#1EC88B"/>
<path d="M10.8007 10.2104C10.8013 10.6145 10.6469 11.0034 10.3692 11.297C10.0916 11.5906 9.71193 11.7665 9.30846 11.7885C9.09983 11.8055 8.88995 11.7791 8.69202 11.711C8.49409 11.6429 8.3124 11.5346 8.15838 11.3928C8.00437 11.2511 7.88137 11.079 7.79712 10.8873C7.71287 10.6957 7.6692 10.4888 7.66886 10.2794C7.65635 10.0788 7.68517 9.87772 7.75355 9.68867C7.82194 9.49963 7.92842 9.32664 8.0664 9.18044C8.20439 9.03424 8.37093 8.91794 8.5557 8.83874C8.74048 8.75955 8.93955 8.71915 9.14058 8.72005C10.0937 8.68647 10.7764 9.30762 10.8007 10.2104Z" fill="#1EC88B"/>
<path d="M16.9957 10.2463C16.9985 10.4552 16.958 10.6624 16.877 10.855C16.7959 11.0475 16.676 11.2213 16.5248 11.3654C16.3735 11.5095 16.1941 11.6208 15.9978 11.6924C15.8016 11.764 15.5927 11.7943 15.3841 11.7815C14.9798 11.7629 14.597 11.594 14.3107 11.308C14.0243 11.022 13.855 10.6394 13.8359 10.2351C13.8396 10.0261 13.8854 9.81996 13.9706 9.62903C14.0558 9.4381 14.1785 9.26629 14.3316 9.12387C14.4846 8.98145 14.6648 8.87133 14.8613 8.8001C15.0579 8.72888 15.2668 8.698 15.4755 8.70931C15.6781 8.7038 15.8796 8.73992 16.0677 8.81544C16.2557 8.89095 16.4263 9.00425 16.5688 9.14832C16.7113 9.29239 16.8227 9.46417 16.8961 9.65304C16.9696 9.8419 17.0035 10.0438 16.9957 10.2463Z" fill="#1EC88B"/>
</svg>
