<svg width="48" height="49" viewBox="0 0 48 49" fill="none" xmlns="http://www.w3.org/2000/svg">
<rect y="0.5" width="48" height="48" rx="15" fill="#0062FF" fill-opacity="0.12"/>
<path d="M35 10.5H13C12.2044 10.5 11.4413 10.8161 10.8787 11.3787C10.3161 11.9413 10 12.7044 10 13.5V27.5C10 28.2956 10.3161 29.0587 10.8787 29.6213C11.4413 30.1839 12.2044 30.5 13 30.5H17.59L20.29 33.21C20.3834 33.3027 20.4943 33.376 20.6161 33.4258C20.7379 33.4755 20.8684 33.5008 21 33.5H23V33.88L17.55 36.61C17.3337 36.7402 17.1746 36.9474 17.1047 37.19C17.0348 37.4326 17.0592 37.6927 17.1732 37.9181C17.2871 38.1434 17.4821 38.3173 17.7189 38.4048C17.9557 38.4924 18.2169 38.4871 18.45 38.39L23 36.12V36.5C23 36.7652 23.1054 37.0196 23.2929 37.2071C23.4804 37.3946 23.7348 37.5 24 37.5C24.2652 37.5 24.5196 37.3946 24.7071 37.2071C24.8946 37.0196 25 36.7652 25 36.5V36.12L29.55 38.39C29.6883 38.464 29.8431 38.5019 30 38.5C30.1847 38.4994 30.3656 38.4478 30.5227 38.3507C30.6798 38.2536 30.8069 38.1149 30.89 37.95C31.0086 37.7138 31.0289 37.4403 30.9465 37.1892C30.864 36.9381 30.6855 36.7299 30.45 36.61L25 33.88V33.5H27C27.1316 33.5008 27.2621 33.4755 27.3839 33.4258C27.5057 33.376 27.6166 33.3027 27.71 33.21L30.41 30.5H35C35.7956 30.5 36.5587 30.1839 37.1213 29.6213C37.6839 29.0587 38 28.2956 38 27.5V13.5C38 12.7044 37.6839 11.9413 37.1213 11.3787C36.5587 10.8161 35.7956 10.5 35 10.5ZM16 24.5C16 24.2348 16.1054 23.9804 16.2929 23.7929C16.4804 23.6054 16.7348 23.5 17 23.5H27C27.2652 23.5 27.5196 23.6054 27.7071 23.7929C27.8946 23.9804 28 24.2348 28 24.5C28 24.7652 27.8946 25.0196 27.7071 25.2071C27.5196 25.3946 27.2652 25.5 27 25.5H17C16.7348 25.5 16.4804 25.3946 16.2929 25.2071C16.1054 25.0196 16 24.7652 16 24.5ZM16 20.5C16 20.2348 16.1054 19.9804 16.2929 19.7929C16.4804 19.6054 16.7348 19.5 17 19.5H22C22.2652 19.5 22.5196 19.6054 22.7071 19.7929C22.8946 19.9804 23 20.2348 23 20.5C23 20.7652 22.8946 21.0196 22.7071 21.2071C22.5196 21.3946 22.2652 21.5 22 21.5H17C16.7348 21.5 16.4804 21.3946 16.2929 21.2071C16.1054 21.0196 16 20.7652 16 20.5ZM26.59 31.5H21.41L20.41 30.5H27.59L26.59 31.5ZM31 17.5H17C16.7348 17.5 16.4804 17.3946 16.2929 17.2071C16.1054 17.0196 16 16.7652 16 16.5C16 16.2348 16.1054 15.9804 16.2929 15.7929C16.4804 15.6054 16.7348 15.5 17 15.5H31C31.2652 15.5 31.5196 15.6054 31.7071 15.7929C31.8946 15.9804 32 16.2348 32 16.5C32 16.7652 31.8946 17.0196 31.7071 17.2071C31.5196 17.3946 31.2652 17.5 31 17.5Z" fill="#0062FF"/>
</svg>
