<svg width="28" height="29" viewBox="0 0 28 29" fill="none" xmlns="http://www.w3.org/2000/svg">
<path d="M16.3327 23.9083V20.6497C16.3327 19.7774 16.3327 19.3413 16.1451 19.0164C16.0222 18.8036 15.8455 18.6268 15.6327 18.504C15.3078 18.3164 14.8717 18.3164 13.9994 18.3164C13.1271 18.3164 12.6909 18.3164 12.366 18.504C12.1532 18.6268 11.9765 18.8036 11.8536 19.0164C11.666 19.3413 11.666 19.7774 11.666 20.6497V23.9083H16.3327Z" fill="#7E8799"/>
<path opacity="0.5" fill-rule="evenodd" clip-rule="evenodd" d="M8.14964 14.5825C7.31825 14.5825 6.58276 14.2315 6.06641 13.6799V16.4492C6.06641 19.969 6.06641 21.7289 7.15987 22.8224C8.04009 23.7026 9.35214 23.8743 11.6664 23.9077H16.3331C18.6473 23.8743 19.9594 23.7026 20.8396 22.8224C21.9331 21.7289 21.9331 19.969 21.9331 16.4492V13.6809C21.4168 14.2319 20.6817 14.5825 19.8508 14.5825C18.3839 14.5825 17.1557 13.471 17.0098 12.0114L16.9416 11.332C17.1157 13.0724 15.749 14.5825 14 14.5825C12.2628 14.5825 10.9028 13.0927 11.0551 11.3673L10.9907 12.0114C10.8447 13.471 9.6165 14.5825 8.14964 14.5825ZM16.3331 20.6492V23.9077H11.6664V20.6492C11.6664 19.7769 11.6664 19.3407 11.854 19.0159C11.9768 18.803 12.1536 18.6263 12.3664 18.5034C12.6913 18.3159 13.1275 18.3159 13.9998 18.3159C14.8721 18.3159 15.3082 18.3159 15.6331 18.5034C15.8459 18.6263 16.0226 18.803 16.1455 19.0159C16.3331 19.3407 16.3331 19.7769 16.3331 20.6492Z" fill="#7E8799"/>
<path d="M11.6662 5.25H16.3329L16.9412 11.3329C17.1152 13.0732 15.7486 14.5833 13.9995 14.5833C12.2505 14.5833 10.8839 13.0732 11.0579 11.3329L11.6662 5.25Z" fill="#7E8799"/>
<path opacity="0.7" d="M5.90744 8.3779C6.07365 7.54687 6.15676 7.13135 6.32573 6.79452C6.68177 6.08477 7.32241 5.55956 8.0882 5.34963C8.45163 5.25 8.87538 5.25 9.72287 5.25H11.6664L10.9901 12.0123C10.8442 13.4718 9.61597 14.5833 8.14912 14.5833C6.34737 14.5833 4.99603 12.935 5.34938 11.1682L5.90744 8.3779Z" fill="#7E8799"/>
<path opacity="0.7" d="M22.0929 8.3779C21.9267 7.54687 21.8436 7.13135 21.6746 6.79452C21.3186 6.08477 20.6779 5.55956 19.9121 5.34963C19.5487 5.25 19.125 5.25 18.2775 5.25H16.334L17.0102 12.0123C17.1562 13.4718 18.3844 14.5833 19.8512 14.5833C21.653 14.5833 23.0043 12.935 22.651 11.1682L22.0929 8.3779Z" fill="#7E8799"/>
</svg>
