<svg width="42" height="42" viewBox="0 0 42 42" fill="none" xmlns="http://www.w3.org/2000/svg">
<path fill-rule="evenodd" clip-rule="evenodd" d="M24.9191 7.37893C19.9802 14.6607 10.8255 17.0219 10.8255 17.0219C10.1233 17.2017 9.408 16.7777 9.22819 16.0756C9.04838 15.3734 9.47231 14.6581 10.1745 14.4782C10.1745 14.4782 18.8921 12.2693 23.1538 5.27237L20.5721 5.25005C19.8476 5.24349 19.2649 4.65024 19.2714 3.92574C19.278 3.20124 19.8713 2.61849 20.5958 2.62505L26.2132 2.67493C26.9299 2.68018 27.5087 3.25899 27.5139 3.97562L27.5625 9.46318C27.5691 10.1877 26.9863 10.7809 26.2618 10.7875C25.5373 10.7941 24.9441 10.2113 24.9375 9.48681L24.9191 7.37893ZM13.7616 39.3751H7.875C6.42469 39.3751 5.25 38.2004 5.25 36.7501V24.9376C5.25 23.4872 6.42469 22.3126 7.875 22.3126H13.7616V39.3751ZM16.3866 21.046C16.3866 19.5707 17.5823 18.3751 19.0575 18.3751H22.8336C24.3088 18.3751 25.5045 19.5707 25.5045 21.046V39.3751H16.3866V21.046ZM28.1295 15.796C28.1295 14.3207 29.3252 13.1251 30.7991 13.1251H34.125C35.5753 13.1251 36.75 14.2997 36.75 15.7501V36.7501C36.75 38.2004 35.5753 39.3751 34.125 39.3751H28.1295V15.796Z" fill="#00BF58"/>
</svg>
