<svg width="21" height="20" viewBox="0 0 21 20" fill="none" xmlns="http://www.w3.org/2000/svg">
<circle opacity="0.1" cx="10.75" cy="10" r="10" fill="#47FF91"/>
<path fill-rule="evenodd" clip-rule="evenodd" d="M10.531 6.86502C10.5722 6.71135 10.6727 6.58033 10.8105 6.50078C10.9483 6.42123 11.112 6.39966 11.2657 6.44082L14.5442 7.31928C14.6978 7.36048 14.8288 7.46103 14.9084 7.59881C14.9879 7.73659 15.0095 7.90033 14.9684 8.05401L14.0899 11.3325C14.0465 11.4837 13.9455 11.6119 13.8086 11.6893C13.6717 11.7668 13.5098 11.7874 13.3578 11.7467C13.2059 11.706 13.076 11.6072 12.9961 11.4716C12.9163 11.3361 12.8929 11.1746 12.931 11.0219L13.4345 9.14256L7.41428 12.6184C7.27647 12.6979 7.11269 12.7195 6.95899 12.6783C6.80528 12.6371 6.67423 12.5366 6.59466 12.3987C6.5151 12.2609 6.49354 12.0972 6.53472 11.9435C6.57591 11.7897 6.67647 11.6587 6.81428 11.5791L12.8345 8.10333L10.9552 7.59975C10.8015 7.55855 10.6705 7.458 10.5909 7.32022C10.5114 7.18244 10.4898 7.0187 10.531 6.86502Z" fill="#47FF91"/>
</svg>
