<svg width="34" height="32" viewBox="0 0 34 32" fill="none" xmlns="http://www.w3.org/2000/svg">
<path d="M25.5213 13.6768V20.0234H28.0731V13.6768C28.0731 13.4841 28.2298 13.3274 28.4225 13.3274H29.2145L26.7961 10.1191L24.3799 13.3274H25.1719C25.3646 13.3274 25.5213 13.4841 25.5213 13.6768Z" fill="#0062FF"/>
<path d="M28.4217 20.7244H25.1711H23.9746V33.4324H29.6181V20.7244H28.4217Z" fill="#0062FF"/>
<path d="M15.2568 25.9062H20.8982V33.4324H15.2568V25.9062Z" fill="#0062FF"/>
<path d="M6.53613 29.5039H12.1775V33.4321H6.53613V29.5039Z" fill="#0062FF"/>
<path d="M17.0249 22.8863C17.3553 22.6131 17.5543 22.2256 17.584 21.7957L17.8677 17.6494C17.9016 17.156 17.6221 16.6858 17.1731 16.4804L13.9268 14.9875L13.8929 12.3468L15.1571 13.1176C15.3456 13.232 15.551 13.3082 15.7713 13.34L18.6386 13.7571C19.0875 13.8228 19.5407 13.6894 19.8837 13.3929C20.2268 13.0964 20.4237 12.6666 20.4237 12.2134C20.4237 11.4489 19.8774 10.8009 19.1235 10.6738L16.0931 10.1614L13.247 7.39361C12.2941 6.46608 10.8202 6.3602 9.74232 7.13949L6.22068 9.68702C5.82891 9.97079 5.58538 10.407 5.54727 10.8898L5.25715 14.7016C5.22962 15.0595 5.33762 15.4131 5.55785 15.6969C5.78021 15.9807 6.09574 16.1691 6.4515 16.2306C6.8475 16.2983 7.25621 16.1946 7.57597 15.9489C7.89362 15.7033 8.0948 15.3306 8.12868 14.9303L8.3828 11.8851L9.9075 10.8136L9.86515 16.8849L7.76868 25.0209C7.55903 25.8362 7.99527 26.6748 8.78515 26.9713C8.9715 27.0411 9.16632 27.075 9.36115 27.075C9.62374 27.075 9.88632 27.0115 10.1235 26.8866C10.5364 26.6706 10.8393 26.2851 10.9557 25.8341L12.8531 18.3397L14.5091 19.0153L14.4774 21.6729C14.4689 22.4713 15.0576 23.1426 15.8496 23.2357C16.2774 23.2844 16.6946 23.1595 17.0249 22.8863Z" fill="#0062FF"/>
<path d="M12.1666 5.84566C13.5283 5.84566 14.6379 4.73813 14.6379 3.37437C14.6379 2.01272 13.5304 0.903076 12.1666 0.903076C10.805 0.903076 9.69531 2.01061 9.69531 3.37437C9.69743 4.73813 10.805 5.84566 12.1666 5.84566Z" fill="#0062FF"/>
</svg>
