<svg width="35" height="35" viewBox="0 0 35 35" fill="none" xmlns="http://www.w3.org/2000/svg">
<circle cx="14.0007" cy="10.4987" r="4.66667" fill="white"/>
<ellipse cx="14.0007" cy="23.3346" rx="8.16667" ry="4.66667" fill="white"/>
<path d="M27.9996 23.333C27.9996 25.266 25.6248 26.833 22.7253 26.833C23.5796 25.8993 24.167 24.7272 24.167 23.3346C24.167 21.9404 23.5782 20.7673 22.7224 19.8331C25.6219 19.8331 27.9996 21.4 27.9996 23.333Z" fill="white"/>
<path d="M24.4996 10.5C24.4996 12.433 22.9326 14 20.9996 14C20.5781 14 20.174 13.9255 19.7998 13.7889C20.3517 12.8182 20.667 11.6952 20.667 10.4987C20.667 9.30304 20.3522 8.1809 19.801 7.21062C20.1749 7.07434 20.5786 7 20.9996 7C22.9326 7 24.4996 8.567 24.4996 10.5Z" fill="white"/>
</svg>
