<svg width="35" height="22" viewBox="0 0 35 22" fill="none" xmlns="http://www.w3.org/2000/svg">
<path d="M0.875 4C0.875 2.067 2.442 0.5 4.375 0.5H30.375C32.308 0.5 33.875 2.067 33.875 4V18C33.875 19.933 32.308 21.5 30.375 21.5H4.375C2.442 21.5 0.875 19.933 0.875 18V4Z" fill="white" stroke="#EEEEEE"/>
<path fill-rule="evenodd" clip-rule="evenodd" d="M21.736 7.33436L21.4582 8.98113C20.6252 8.51036 18.7294 8.39897 18.7292 9.26605C18.7292 9.61051 19.1581 9.84741 19.6751 10.1329C20.4592 10.566 21.4458 11.1108 21.4458 12.3124C21.4458 14.2324 19.4418 14.9378 18.1134 14.9378C16.7854 14.9378 15.9162 14.5048 15.9162 14.5048L16.2056 12.783C17.0026 13.4392 19.4176 13.6256 19.4176 12.585C19.4176 12.1478 18.9422 11.8899 18.3909 11.5908C17.6303 11.1783 16.7252 10.6873 16.7252 9.53867C16.7252 7.43303 19.0192 7 19.9852 7C20.8788 7 21.736 7.33436 21.736 7.33436ZM28.231 14.8055H26.4436L26.2156 13.6665H23.741L23.3352 14.8055H21.306L24.2092 7.70831C24.2092 7.70831 24.3852 7.13682 25.1078 7.13682H26.6726L28.231 14.8055ZM11.1326 7.13703L9.2768 12.4115L9.0572 11.2757L9.0574 11.2761L8.4024 7.82749C8.4024 7.82749 8.3232 7.13703 7.479 7.13703H4.411L4.375 7.26687C4.375 7.26687 5.3132 7.46708 6.4112 8.14338L8.1024 14.8057H10.1306L13.2276 7.13703H11.1326ZM14.7168 14.8055H12.7702L13.9868 7.13703H15.9336L14.7168 14.8055ZM24.3016 12.0929L25.3244 9.22318L25.8998 12.0929H24.3016Z" fill="#2566AF"/>
<path d="M9.0574 11.2758L8.4024 7.82718C8.4024 7.82718 8.3232 7.13672 7.479 7.13672H4.411L4.375 7.26656C4.375 7.26656 5.8496 7.58 7.264 8.75436C8.6164 9.87682 9.0574 11.2758 9.0574 11.2758Z" fill="#E6A540"/>
</svg>
